<svg width="1018" height="31" viewBox="0 0 1018 31" fill="none" xmlns="http://www.w3.org/2000/svg">
<g opacity="0.3">
<g clip-path="url(#clip0)">
<path d="M38.388 16.4403C38.3481 16.4877 38.3099 16.5369 38.2675 16.5815L38.2667 16.5908L34.2844 21.0455L34.2777 21.0436C34.0135 21.3412 33.699 21.5772 33.3528 21.7382C33.0065 21.8992 32.6351 21.9819 32.26 21.9815H28.34C28.2623 21.9814 28.1853 21.9984 28.1135 22.0315C28.0417 22.0647 27.9764 22.1134 27.9214 22.1749C27.8664 22.2362 27.8228 22.3092 27.7931 22.3895C27.7633 22.4697 27.748 22.5558 27.748 22.6427V26.5578L27.7355 26.5587C27.7143 26.7029 27.6579 26.8377 27.5727 26.9484C27.4874 27.059 27.3766 27.1413 27.2522 27.1861C27.1279 27.2309 26.995 27.2365 26.868 27.2024C26.741 27.1682 26.6249 27.0956 26.5324 26.9925L26.5299 26.9943L22.9179 22.9566L22.9212 22.9501C22.6447 22.6535 22.4246 22.2974 22.2744 21.9032C22.1241 21.509 22.0467 21.0849 22.0469 20.6563V10.5537C22.0469 9.69752 22.3499 8.9221 22.8415 8.34913L22.8398 8.34356L26.9351 3.76352L26.9367 3.76445C27.4682 3.18117 28.1833 2.85468 28.9279 2.85532H32.26C32.6852 2.85532 33.087 2.96211 33.4483 3.14877V3.14134C33.7572 3.30199 34.0378 3.51836 34.2736 3.78395L34.2786 3.78117L39.1394 9.21741L39.1402 15.5943H44.8281V25.5029C44.8297 25.5085 44.8297 25.515 44.8297 25.5215V25.7453C44.8047 26.1475 44.6442 26.524 44.3807 26.799C44.1172 27.0741 43.7703 27.2272 43.4098 27.2274H40.5592C40.3623 27.2272 40.1677 27.1815 39.9873 27.0929C39.8071 27.0043 39.6451 26.875 39.5118 26.713C39.3785 26.5509 39.2766 26.3597 39.2127 26.1515C39.1487 25.9432 39.124 25.7224 39.1402 25.5029V15.5943L38.388 16.4403ZM32.8562 15.6018C32.9339 15.6019 33.0109 15.5849 33.0827 15.5517C33.1546 15.5185 33.2198 15.4699 33.2748 15.4084C33.3298 15.3471 33.3734 15.2741 33.4032 15.1938C33.433 15.1136 33.4483 15.0275 33.4483 14.9406V9.89439C33.4483 9.80748 33.433 9.72142 33.4032 9.64114C33.3734 9.56086 33.3298 9.48793 33.2748 9.42652C33.2198 9.36511 33.1546 9.31643 33.0827 9.28326C33.0109 9.25008 32.9339 9.23308 32.8562 9.2332V9.23227H28.3392C28.1823 9.23227 28.0318 9.30189 27.9208 9.42586C27.8098 9.54984 27.7474 9.71801 27.7471 9.89345V14.9387C27.7471 15.3047 28.012 15.6 28.3392 15.6H32.8545L32.8562 15.6018Z" fill="white"/>
<path d="M39.1436 15.601H44.8314L39.1436 9.22589V15.601Z" fill="white"/>
<path d="M52.894 8.16701H58.1575C60.3081 8.16701 62.2162 8.16701 63.3654 10.0122C63.8661 10.8415 64.1069 12.0227 64.1069 13.0173C64.1069 13.8252 63.9583 14.6136 63.6619 15.2971C62.5318 17.9094 60.1221 17.9716 58.3427 18.0124H56.1747V22.8005H52.894V8.16701ZM56.1763 10.8619V15.2971H58.1426C59.3673 15.2971 60.8511 15.2563 60.8511 12.9969C60.8511 10.861 59.1996 10.861 58.2538 10.861L56.1763 10.8619ZM68.0377 13.0981C68.6679 12.4963 69.3538 12.02 70.836 11.8537V14.6731L69.891 14.8384C68.5201 15.1076 68.1116 15.3361 68.1116 16.704V22.7977H65.2578V11.9577H68.0377V13.0981ZM81.9741 17.3652C81.9741 20.1019 80.5658 23.1069 76.7845 23.1069C74.0602 23.1069 71.5766 21.3657 71.5766 17.3652C71.5766 14.049 73.4482 11.4163 77.1557 11.6447C81.1031 11.8936 81.9741 15.3965 81.9741 17.3652ZM74.9312 15.2321C74.5791 15.8543 74.4496 16.6019 74.4496 17.3494C74.4496 19.072 75.1903 20.5875 76.7845 20.5875C78.3231 20.5875 79.0829 19.1964 79.0829 17.4952C79.0829 16.2907 78.823 15.3566 78.2858 14.7752C77.6929 14.153 77.0253 14.1316 76.6176 14.1735C75.8022 14.2356 75.3206 14.5468 74.932 15.2321H74.9312ZM84.2916 10.8972C84.2916 10.3586 84.3281 9.63241 84.6985 9.05201C85.0514 8.5134 85.8477 7.95343 87.1828 7.95343C87.7574 7.95343 88.3321 8.05744 88.8875 8.13916V10.5239H88.2017C87.1272 10.5239 87.0716 10.7728 87.0899 12.2233H88.9988V14.1716H87.1081V22.7949H84.2725V14.1716H82.753V12.2233H84.2916V10.8972Z" fill="white"/>
<path d="M90.4254 10.6148H93.2413V8.14835H90.4254V10.6148ZM90.4254 22.8031H93.2413V11.9623H90.4254V22.8031Z" fill="white"/>
<path d="M96.1514 8.84488H98.9869V12.2233H100.859V14.1715H98.9686V19.0432C98.9503 19.7062 98.9503 20.2661 99.7104 20.2661L100.729 20.2244V22.7113C100.118 22.8153 99.747 22.8775 99.2288 22.8775C98.2452 22.8775 97.1709 22.8153 96.5592 21.8198C96.1704 21.1781 96.1521 20.4111 96.1521 19.3747V14.1511H94.7431V12.2028H96.1514V8.84488Z" fill="white"/>
<path d="M111.567 8.16724C111.957 9.7422 112.345 11.3181 112.77 12.894C113.494 15.7124 113.624 16.1684 114.032 19.0081C114.42 16.1062 114.513 15.6094 115.106 12.6238C115.384 11.1315 115.68 9.63912 115.959 8.16724H119.202L115.885 22.8007H112.512C112.104 21.1849 111.714 19.5672 111.288 17.9718C110.584 15.2769 110.546 15.1728 110.157 13.1215C109.824 14.9249 109.787 15.0698 109.045 17.8678L107.785 22.8007H104.412L101.095 8.16724H104.357C105.765 15.1106 105.915 15.8777 106.303 19.049C106.784 16.1479 106.915 15.588 107.601 12.6859L108.675 8.16724H111.567Z" fill="white"/>
<path d="M128.784 20.0464C128.45 20.6063 128.116 21.145 127.616 21.6632C126.781 22.5342 125.521 23.1972 123.965 23.1972C121.092 23.1972 119.072 21.145 119.072 17.6003C119.072 14.9891 120.221 11.6311 124.039 11.6311C124.614 11.6311 126.281 11.6933 127.523 13.1856C128.784 14.6993 128.857 16.8128 128.895 18.0359H121.982C121.963 19.3824 122.649 20.7308 124.188 20.7308C125.744 20.7308 126.281 19.5904 126.634 18.8234L128.784 20.0464ZM125.947 16.0366C125.892 15.5824 125.818 14.9844 125.41 14.5098C125.057 14.117 124.522 13.9109 124.02 13.9109C123.335 13.9109 122.853 14.2823 122.575 14.6129C122.185 15.0875 122.093 15.5824 122 16.0366H125.947Z" fill="white"/>
<path d="M130.547 22.8007H133.401V8.16724H130.547V22.8007Z" fill="white"/>
<path d="M135.952 22.8007H138.806V8.16724H135.952V22.8007Z" fill="white"/>
</g>
<g clip-path="url(#clip1)">
<path d="M221.925 16.1624L228.871 27.1308C228.953 27.2563 229.066 27.3582 229.199 27.4266C229.332 27.4949 229.48 27.5274 229.629 27.5208H232.202C232.318 27.5222 232.434 27.5002 232.541 27.4561C232.649 27.412 232.746 27.3467 232.829 27.264C232.911 27.1813 232.976 27.083 233.02 26.9747C233.064 26.8663 233.086 26.7503 233.085 26.6332V3.40444C233.083 3.21918 233.025 3.03902 232.917 2.88866C232.81 2.73829 232.659 2.62509 232.485 2.56457C232.312 2.50405 232.123 2.49919 231.947 2.55064C231.77 2.60209 231.614 2.70734 231.499 2.85195L221.925 15.096C221.822 15.2542 221.766 15.4396 221.766 15.6292C221.766 15.8188 221.822 16.0042 221.925 16.1624Z" fill="white"/>
<path d="M214.117 27.5171H218.699C218.815 27.5184 218.931 27.4964 219.038 27.4523C219.146 27.4082 219.243 27.3429 219.326 27.2603C219.408 27.1776 219.473 27.0792 219.517 26.9709C219.561 26.8626 219.583 26.7465 219.582 26.6294V20.7389C219.579 20.5539 219.52 20.3743 219.412 20.2245C219.304 20.0748 219.153 19.9621 218.98 19.9019C218.806 19.8418 218.618 19.8369 218.442 19.8883C218.266 19.9395 218.109 20.0444 217.994 20.1885L213.412 26.079C213.314 26.2123 213.254 26.3701 213.24 26.5353C213.225 26.7004 213.256 26.8664 213.329 27.015C213.402 27.1636 213.514 27.2891 213.653 27.3777C213.792 27.4663 213.953 27.5145 214.117 27.5171Z" fill="white"/>
<path d="M295.961 14.2732C295.909 14.2086 295.852 14.1482 295.79 14.0925L295.695 14.0112L295.647 13.9685C295.429 13.7833 295.191 13.6213 294.939 13.4851C294.667 13.3202 294.378 13.1841 294.078 13.0788C293.77 12.9682 293.454 12.8839 293.132 12.827C292.302 12.6782 291.449 12.7219 290.638 12.955C290.153 13.0932 289.687 13.2917 289.251 13.546C288.823 13.799 288.428 14.1062 288.076 14.4601C287.726 14.8171 287.417 15.213 287.155 15.6402C286.889 16.0705 286.686 16.537 286.551 17.0255C286.265 18.0358 286.265 19.1067 286.551 20.117C286.689 20.6036 286.893 21.069 287.155 21.5002C287.417 21.9275 287.726 22.3233 288.076 22.6803C288.43 23.0346 288.825 23.3425 289.255 23.5964C289.692 23.8435 290.155 24.0411 290.636 24.1855C291.467 24.4356 292.346 24.4796 293.199 24.3134C293.526 24.2588 293.847 24.1668 294.154 24.0392C294.448 23.9181 294.733 23.7748 295.006 23.6107C295.277 23.4476 295.539 23.2679 295.788 23.0723C295.86 23.0093 295.927 22.9415 295.99 22.8693L296.022 22.8327C296.082 22.7609 296.127 22.6781 296.155 22.589L296.167 22.5158C296.173 22.3988 296.146 22.2825 296.088 22.1806L296.06 22.136C296.038 22.1 296.013 22.066 295.985 22.0344L295.911 21.9328C295.762 21.7297 295.621 21.5266 295.47 21.3398C295.406 21.2656 295.326 21.2072 295.236 21.1692C295.147 21.1387 295.049 21.1387 294.96 21.1692C294.832 21.2268 294.715 21.3073 294.615 21.4068L294.483 21.5205C294.351 21.6302 294.281 21.7013 294.097 21.8313C293.933 21.9581 293.754 22.0664 293.565 22.1543C293.362 22.2587 293.146 22.3352 292.922 22.3818C292.187 22.5423 291.421 22.4611 290.734 22.1502C290.293 21.9499 289.892 21.6697 289.551 21.3235C289.202 20.9696 288.922 20.5518 288.727 20.0926C288.52 19.6265 288.413 19.1216 288.413 18.6108C288.413 18.1001 288.52 17.5952 288.727 17.1291C288.924 16.6675 289.202 16.2462 289.549 15.886C289.895 15.5376 290.296 15.2505 290.736 15.037C291.374 14.732 292.093 14.6464 292.784 14.7932C293.015 14.8466 293.241 14.9186 293.461 15.0085C293.67 15.0981 293.872 15.204 294.065 15.3254C294.468 15.565 294.923 16.2516 295.365 15.7072L296.003 14.842C296.034 14.8005 296.055 14.7534 296.066 14.7035C296.078 14.6537 296.079 14.6019 296.07 14.5515C296.059 14.4507 296.021 14.3546 295.961 14.2732Z" fill="white"/>
<path d="M256.667 23.481L249.679 7.45278C249.632 7.33376 249.551 7.23154 249.446 7.15918C249.342 7.08682 249.218 7.0476 249.091 7.04654H247.97C247.845 7.04604 247.722 7.08303 247.618 7.15281C247.514 7.2226 247.432 7.32205 247.384 7.43856L240.382 23.4627C240.333 23.5607 240.312 23.6698 240.319 23.7789C240.326 23.8881 240.361 23.9934 240.422 24.0842C240.479 24.1771 240.559 24.2535 240.654 24.3061C240.749 24.3588 240.855 24.3859 240.964 24.3849H241.998C242.124 24.3874 242.247 24.3513 242.352 24.2813C242.458 24.2112 242.539 24.1106 242.586 23.9928L244.267 20.0381H252.76L254.431 23.9928C254.478 24.1122 254.559 24.2146 254.664 24.287C254.769 24.3594 254.894 24.3984 255.021 24.3991H256.029C256.133 24.4057 256.238 24.3861 256.333 24.3417C256.428 24.2974 256.51 24.2298 256.573 24.1452C256.646 24.0533 256.694 23.9431 256.711 23.8262C256.727 23.7093 256.712 23.59 256.667 23.481ZM245.161 17.9967L245.189 17.9337L248.557 10.0344L251.934 17.9967H245.161Z" fill="white"/>
<path d="M320.652 16.782C320.478 16.1617 320.206 15.5739 319.846 15.0412C319.58 14.6828 319.275 14.3563 318.935 14.0683C318.613 13.7794 318.248 13.5436 317.853 13.3695C317.467 13.1755 317.063 13.0243 316.644 12.9186C315.71 12.6867 314.732 12.7057 313.807 12.9735C313.332 13.1064 312.878 13.3046 312.457 13.5625C312.04 13.824 311.656 14.1334 311.31 14.4847C310.971 14.8356 310.683 15.2337 310.456 15.6668C310.214 16.1078 310.029 16.5782 309.906 17.0663C309.69 17.8436 309.647 18.6592 309.781 19.455C309.816 19.766 309.875 20.0737 309.958 20.3752C310.132 20.9968 310.404 21.586 310.764 22.1199C311.03 22.4778 311.335 22.8035 311.675 23.0909C311.998 23.3801 312.364 23.6165 312.759 23.7916C313.144 23.986 313.55 24.1365 313.968 24.2405C315.393 24.5916 316.898 24.3601 318.153 23.5966C318.57 23.3357 318.954 23.0269 319.3 22.6765C319.629 22.3395 319.907 21.9547 320.124 21.535L320.142 21.4944C320.183 21.4391 320.207 21.3735 320.213 21.305C320.219 21.2364 320.205 21.1677 320.174 21.1064C320.149 21.0598 320.112 21.0207 320.067 20.9929C320.023 20.965 319.971 20.9496 319.918 20.9479H318.248C318.178 20.9463 318.108 20.961 318.044 20.9909C317.98 21.0209 317.924 21.0652 317.879 21.1206C317.669 21.3779 317.423 21.6035 317.15 21.7909C316.857 21.9794 316.539 22.1237 316.205 22.2195C315.463 22.4359 314.673 22.4132 313.946 22.1545C313.559 22.0127 313.194 21.8127 312.866 21.5614C312.547 21.306 312.282 20.9891 312.086 20.629C311.915 20.2399 311.794 19.8303 311.725 19.4103L311.715 19.3575H311.772L320.356 19.3392C320.708 19.3392 320.908 19.1199 320.908 18.7299C320.932 18.0707 320.845 17.4123 320.652 16.782ZM318.825 17.5477L311.878 17.5802L311.896 17.5213C312.012 17.126 312.185 16.7501 312.41 16.4062C312.685 15.9978 313.033 15.6457 313.438 15.3682C313.733 15.1777 314.054 15.0318 314.391 14.9356C315.132 14.7191 315.922 14.7418 316.65 15.0006C317.038 15.1424 317.402 15.3423 317.73 15.5937C318.051 15.8504 318.317 16.1695 318.512 16.5321C318.682 16.831 318.804 17.1553 318.873 17.4928L318.885 17.5477H318.825Z" fill="white"/>
<path d="M269 22.6663C269.346 22.3095 269.649 21.9135 269.904 21.4862C270.157 21.047 270.354 20.5775 270.491 20.0888C270.775 19.0788 270.775 18.0092 270.491 16.9993C270.354 16.5106 270.157 16.0411 269.904 15.6018C269.399 14.7344 268.681 14.0115 267.821 13.5016C267.39 13.25 266.931 13.0515 266.453 12.9105C265.22 12.5508 263.901 12.6341 262.723 13.1461C262.227 13.3736 261.764 13.6681 261.346 14.0216L261.272 14.0845V13.4589C261.281 13.3814 261.272 13.3029 261.246 13.2292C261.221 13.1556 261.179 13.0888 261.124 13.0336C261.069 12.9786 261.003 12.9367 260.93 12.9111C260.856 12.8856 260.778 12.877 260.702 12.8861H259.823C259.745 12.8768 259.667 12.885 259.592 12.9101C259.518 12.9354 259.451 12.9769 259.394 13.0318C259.338 13.0866 259.295 13.1535 259.268 13.2274C259.24 13.3013 259.23 13.3803 259.237 13.4589V26.942C259.234 27.0166 259.247 27.091 259.273 27.1606C259.3 27.2303 259.34 27.2938 259.392 27.3474C259.443 27.4011 259.505 27.4437 259.573 27.4728C259.641 27.5019 259.715 27.5169 259.789 27.5168H260.685C260.843 27.5216 260.996 27.464 261.113 27.3564C261.165 27.3031 261.206 27.2395 261.234 27.1697C261.261 27.0999 261.274 27.0252 261.272 26.9501V23.0096L261.346 23.0726C261.758 23.4216 262.216 23.7108 262.707 23.9318C263.885 24.4436 265.202 24.527 266.434 24.1674C266.919 24.0296 267.385 23.831 267.821 23.5763C268.251 23.3257 268.647 23.0198 269 22.6663ZM266.334 22.1016C265.887 22.311 265.401 22.4194 264.909 22.4194C264.417 22.4194 263.931 22.311 263.484 22.1016C263.036 21.8983 262.634 21.6053 262.302 21.2405C261.96 20.8796 261.687 20.459 261.495 19.9994C261.302 19.534 261.202 19.0344 261.202 18.5298C261.202 18.0252 261.302 17.5256 261.495 17.0602C261.69 16.6088 261.963 16.1961 262.302 15.8415C262.64 15.4882 263.041 15.2016 263.484 14.9965C263.93 14.7878 264.416 14.6797 264.908 14.6797C265.4 14.6797 265.886 14.7878 266.332 14.9965C266.768 15.2038 267.163 15.4895 267.498 15.8395C267.831 16.1953 268.099 16.608 268.288 17.0582C268.483 17.523 268.583 18.0223 268.583 18.5268C268.583 19.0312 268.483 19.5305 268.288 19.9953C268.095 20.4525 267.827 20.874 267.496 21.2425C267.168 21.6021 266.773 21.894 266.334 22.1016Z" fill="white"/>
<path d="M274.535 12.9023H273.657C273.578 12.8927 273.498 12.9011 273.423 12.9268C273.348 12.9526 273.28 12.9951 273.224 13.0512C273.167 13.1072 273.124 13.1753 273.098 13.2505C273.071 13.3257 273.062 13.406 273.07 13.4853V26.9501C273.068 27.0251 273.082 27.0997 273.109 27.1695C273.136 27.2393 273.177 27.3029 273.229 27.3563C273.281 27.4082 273.342 27.449 273.41 27.4766C273.477 27.5042 273.55 27.5179 273.622 27.5169H274.517C274.675 27.5216 274.828 27.464 274.944 27.3563C274.997 27.3034 275.038 27.2399 275.066 27.17C275.093 27.1001 275.106 27.0252 275.103 26.9501V23.0096L275.178 23.0725C275.59 23.422 276.048 23.7113 276.54 23.9317C277.718 24.4438 279.036 24.5271 280.268 24.1674C280.753 24.0292 281.219 23.8306 281.655 23.5763C282.084 23.3212 282.48 23.012 282.833 22.6562C283.179 22.2993 283.481 21.9033 283.736 21.476C283.988 21.0367 284.186 20.5673 284.323 20.0786C284.608 19.0689 284.608 17.9987 284.323 16.9891C284.186 16.5003 283.989 16.0307 283.736 15.5917C283.231 14.7239 282.515 14.0008 281.655 13.4914C281.222 13.2402 280.762 13.0417 280.284 12.9003C279.052 12.5408 277.733 12.6241 276.554 13.1359C276.058 13.3634 275.595 13.6579 275.178 14.0113L275.097 14.0947V13.4853C275.107 13.4077 275.1 13.3288 275.076 13.2546C275.051 13.1803 275.01 13.1126 274.956 13.0565C274.902 13.0004 274.836 12.9574 274.763 12.9307C274.69 12.904 274.612 12.8943 274.535 12.9023ZM275.329 17.0744C275.524 16.6232 275.797 16.2106 276.135 15.8557C276.472 15.5001 276.872 15.2108 277.314 15.0026C277.76 14.7939 278.246 14.6858 278.738 14.6858C279.23 14.6858 279.715 14.7939 280.161 15.0026C280.604 15.2092 281.004 15.4956 281.344 15.8476C281.677 16.2034 281.945 16.6161 282.134 17.0663C282.329 17.531 282.43 18.0303 282.43 18.5348C282.43 19.0393 282.329 19.5387 282.134 20.0034C281.943 20.4623 281.675 20.8848 281.342 21.2526C281.013 21.612 280.618 21.9038 280.179 22.1118C279.732 22.3206 279.246 22.4287 278.754 22.4287C278.261 22.4287 277.775 22.3206 277.328 22.1118C276.881 21.9077 276.479 21.6148 276.147 21.2506C275.806 20.89 275.532 20.4694 275.341 20.0095C275.147 19.5454 275.045 19.047 275.043 18.5432C275.041 18.0393 275.138 17.5401 275.329 17.0744Z" fill="white"/>
<path d="M307.54 13.3188C307.548 13.24 307.538 13.1603 307.511 13.0859C307.484 13.0115 307.441 12.9441 307.385 12.889C307.329 12.8338 307.26 12.7923 307.185 12.7676C307.111 12.7428 307.032 12.7354 306.953 12.746H306.069C305.992 12.7369 305.914 12.7455 305.841 12.771C305.768 12.7965 305.702 12.8384 305.646 12.8935C305.592 12.9486 305.55 13.0154 305.524 13.0891C305.499 13.1627 305.49 13.2412 305.499 13.3188V19.782C305.506 20.1607 305.424 20.5358 305.261 20.8768C305.121 21.1887 304.914 21.466 304.657 21.6893C304.405 21.8984 304.121 22.0639 303.816 22.1788C303.474 22.3066 303.11 22.3629 302.745 22.344C302.381 22.3251 302.023 22.2316 301.696 22.0691C301.386 21.9072 301.117 21.675 300.91 21.3907C300.705 21.1202 300.558 20.8086 300.481 20.4767C300.397 20.1391 300.352 19.7928 300.348 19.4448V13.4853C300.358 13.2904 300.312 13.0967 300.217 12.9267C300.145 12.8525 300.058 12.7956 299.961 12.7605C299.864 12.7253 299.762 12.7126 299.659 12.7236H299.022C298.928 12.7204 298.833 12.7368 298.745 12.7717C298.656 12.8066 298.576 12.8594 298.508 12.9267C298.438 13.0061 298.383 13.0989 298.349 13.1997C298.314 13.3005 298.3 13.4073 298.307 13.5137V19.4631C298.299 20.113 298.396 20.7597 298.593 21.3785C298.779 21.9549 299.072 22.4899 299.458 22.9548C299.843 23.4096 300.325 23.7707 300.868 24.0109C301.813 24.3991 302.85 24.4987 303.851 24.2974C304.12 24.2318 304.385 24.1413 304.638 24.0272C304.875 23.9164 305.095 23.7714 305.289 23.5966L305.428 23.4666L305.505 23.3914V23.8444C305.503 23.9111 305.514 23.9776 305.538 24.0397C305.563 24.1018 305.599 24.1584 305.646 24.2059C305.699 24.2726 305.767 24.3257 305.845 24.361C305.922 24.3963 306.007 24.4128 306.091 24.4091H306.986C307.059 24.4106 307.131 24.3973 307.198 24.3701C307.266 24.3429 307.327 24.3023 307.379 24.2506C307.435 24.2003 307.479 24.1373 307.507 24.0668C307.535 23.9963 307.546 23.9201 307.54 23.8444V13.3188Z" fill="white"/>
<path d="M330.034 19.644C329.848 19.2513 329.579 18.9046 329.244 18.6284C328.879 18.3282 328.472 18.0839 328.035 17.9033C327.542 17.6968 327.031 17.5377 326.508 17.428C326.253 17.3697 326.002 17.293 325.759 17.1984C325.538 17.1173 325.328 17.0096 325.134 16.8775C324.871 16.7177 324.667 16.476 324.553 16.1889C324.487 15.9782 324.487 15.7518 324.553 15.541C324.624 15.3033 324.922 14.6493 326.075 14.5762C327.177 14.5071 327.731 15.09 327.922 15.35C327.951 15.3866 328.221 15.738 328.414 15.9594C328.449 15.9912 328.488 16.0185 328.529 16.0407C328.608 16.0715 328.694 16.082 328.778 16.071C328.862 16.06 328.942 16.0279 329.011 15.9777L329.684 15.474C329.757 15.4299 329.817 15.3674 329.859 15.2927C329.902 15.2178 329.924 15.1333 329.923 15.0474V15.0271C329.894 14.8965 329.842 14.7722 329.77 14.6594C329.572 14.3722 329.356 14.0968 329.125 13.8348C328.92 13.5909 328.68 13.3793 328.412 13.2072C328.135 13.0338 327.833 12.903 327.518 12.8192C326.619 12.5896 325.672 12.6263 324.793 12.9248C324.349 13.0585 323.938 13.2833 323.584 13.5849C323.246 13.8675 322.976 14.2229 322.792 14.6249C322.609 15.0272 322.512 15.4635 322.506 15.9058C322.5 16.3482 322.585 16.787 322.756 17.1943C322.921 17.5644 323.166 17.8932 323.471 18.1572C323.8 18.4415 324.163 18.685 324.549 18.8823C325.003 19.097 325.475 19.2697 325.96 19.3982C326.103 19.4307 326.246 19.4693 326.395 19.51C326.544 19.5506 326.689 19.5892 326.836 19.6237C327.097 19.6872 327.35 19.7812 327.588 19.904C327.789 20.0006 327.967 20.139 328.11 20.3102C328.236 20.4965 328.301 20.7173 328.297 20.9424C328.293 21.1675 328.22 21.3859 328.088 21.5675C327.941 21.7567 327.761 21.9166 327.556 22.0388C327.346 22.1618 327.12 22.2547 326.885 22.315C326.487 22.4055 326.074 22.4055 325.676 22.315C325.467 22.2606 325.264 22.1843 325.072 22.0875C324.876 21.9891 324.694 21.8663 324.529 21.7219C324.379 21.5533 324.249 21.368 324.14 21.1694C324.089 21.0512 324.013 20.9457 323.916 20.8607C323.84 20.7962 323.746 20.7559 323.647 20.7447C323.547 20.7335 323.448 20.752 323.358 20.7977L322.552 21.1816C322.484 21.2106 322.422 21.2519 322.369 21.3035C322.325 21.3475 322.29 21.3991 322.264 21.4558C322.233 21.5367 322.226 21.6249 322.244 21.7097C322.252 21.795 322.273 21.8787 322.307 21.9575C322.446 22.3259 322.644 22.6689 322.893 22.9732C323.169 23.305 323.506 23.5807 323.884 23.7856C324.238 23.9985 324.623 24.1528 325.025 24.2427C325.949 24.4632 326.914 24.4323 327.822 24.1533C328.301 24.0183 328.75 23.7892 329.141 23.4789C329.519 23.1915 329.823 22.8167 330.026 22.3861C330.226 21.9573 330.33 21.4896 330.331 21.016C330.333 20.5423 330.232 20.074 330.034 19.644Z" fill="white"/>
</g>
<g clip-path="url(#clip2)">
<path d="M426.744 8.76822C426.743 8.76778 426.743 8.76697 426.742 8.76614C426.741 8.7647 426.74 8.76284 426.739 8.7614C426.713 8.71853 426.686 8.67711 426.657 8.63671C426.649 8.6262 426.641 8.61631 426.633 8.6058C426.61 8.5755 426.586 8.54603 426.561 8.51738C426.547 8.5011 426.532 8.48523 426.517 8.46957C426.496 8.44855 426.476 8.42773 426.454 8.40733C426.435 8.38878 426.414 8.37044 426.394 8.35313C426.375 8.33726 426.356 8.3218 426.336 8.30655C426.313 8.288 426.288 8.27048 426.264 8.25317C426.245 8.2404 426.227 8.22783 426.208 8.21546C426.181 8.19897 426.155 8.18331 426.128 8.16826C426.109 8.15734 426.089 8.14683 426.069 8.13673C426.041 8.12251 426.013 8.10891 425.984 8.09655C425.964 8.08789 425.944 8.07923 425.924 8.0712C425.893 8.05903 425.862 8.04812 425.83 8.0376C425.812 8.03183 425.794 8.02585 425.775 8.0207C425.739 8.00998 425.701 8.0005 425.664 7.99247C425.65 7.98979 425.637 7.98649 425.624 7.98401C425.578 7.97495 425.53 7.96815 425.483 7.963C425.478 7.96258 425.474 7.96176 425.469 7.96135C425.133 7.92775 424.784 7.99164 424.47 8.1695L415.693 13.1337L409.417 9.58328L415.698 6.02985L419.887 8.39723C420.682 8.84672 421.7 8.58003 422.16 7.80039C422.619 7.02053 422.347 6.02305 421.551 5.57294L416.531 2.73525C416.016 2.44404 415.382 2.44404 414.867 2.73525L405.296 8.14868C405.034 8.28738 404.805 8.49492 404.645 8.76614C404.185 9.54622 404.458 10.5433 405.254 10.9932L414.862 16.4282C414.863 16.4291 414.864 16.4293 414.866 16.4301C414.916 16.4583 414.968 16.4825 415.021 16.5051C415.036 16.5115 415.05 16.5197 415.065 16.5255C415.096 16.5383 415.129 16.5472 415.162 16.5577C415.336 16.6152 415.514 16.6469 415.692 16.6469C415.692 16.6469 415.693 16.6469 415.694 16.6469C415.694 16.6469 415.695 16.6469 415.695 16.6469C415.877 16.6469 416.06 16.6142 416.237 16.554C416.265 16.5443 416.294 16.537 416.322 16.5257C416.339 16.5192 416.355 16.5097 416.372 16.5024C416.423 16.4804 416.473 16.4573 416.521 16.4301C416.523 16.4293 416.524 16.4291 416.526 16.4282L423.64 12.4045V19.5112L415.696 24.0042L407.753 19.5112V15.0177C407.753 14.1173 407.007 13.3875 406.089 13.3875C405.17 13.3875 404.424 14.1173 404.424 15.0177V20.4524C404.424 21.0348 404.741 21.5727 405.256 21.8639L414.864 27.2988C415.121 27.4441 415.409 27.5168 415.696 27.5168C415.983 27.5168 416.271 27.4441 416.528 27.2988L426.136 21.8639C426.651 21.5727 426.968 21.0348 426.968 20.4524V9.58328C426.968 9.2861 426.885 9.00828 426.744 8.76822Z" fill="white"/>
<path fill-rule="evenodd" clip-rule="evenodd" d="M435.598 17.8908C436.154 18.2506 436.718 18.5176 437.29 18.6917C437.863 18.8658 438.427 18.9529 438.982 18.9529C439.537 18.9529 439.985 18.8252 440.327 18.5698C440.668 18.3144 440.839 17.9836 440.839 17.5774C440.839 17.2408 440.703 16.9767 440.431 16.7852C440.159 16.5937 439.818 16.4224 439.407 16.2716C438.996 16.1207 438.554 15.9669 438.08 15.8102C437.605 15.6535 437.163 15.4446 436.752 15.1834C436.342 14.9222 436 14.5769 435.728 14.1474C435.457 13.7179 435.321 13.155 435.321 12.4586C435.321 11.9246 435.431 11.4371 435.65 10.9961C435.87 10.555 436.177 10.1748 436.57 9.85563C436.963 9.53644 437.435 9.28975 437.984 9.11569C438.534 8.94157 439.138 8.8545 439.798 8.8545C440.353 8.8545 440.905 8.90675 441.455 9.01119C442.004 9.11569 442.557 9.27819 443.112 9.49869V12.0407C442.591 11.7389 442.071 11.5155 441.55 11.3704C441.03 11.2253 440.515 11.1528 440.006 11.1528C439.474 11.1528 439.043 11.2688 438.713 11.5009C438.383 11.7331 438.218 12.0407 438.218 12.4238C438.218 12.7488 438.354 13.0041 438.626 13.1898C438.898 13.3756 439.236 13.5409 439.641 13.6861C440.046 13.8311 440.489 13.982 440.969 14.1388C441.449 14.2954 441.891 14.5073 442.296 14.7743C442.701 15.0412 443.039 15.3923 443.311 15.8276C443.583 16.2629 443.719 16.8345 443.719 17.5426C443.719 18.0881 443.606 18.5901 443.381 19.0486C443.155 19.5071 442.843 19.8988 442.444 20.2238C442.045 20.5489 441.567 20.8013 441.012 20.9813C440.457 21.1611 439.85 21.2511 439.19 21.2511C437.976 21.2511 436.778 20.9899 435.598 20.4676V17.8908ZM444.562 8.5237H447.391V12.9461C448.143 12.4005 448.935 12.1278 449.768 12.1278C450.219 12.1278 450.636 12.2061 451.017 12.3628C451.399 12.5195 451.729 12.7401 452.006 13.0244C452.284 13.3088 452.501 13.6483 452.657 14.0429C452.813 14.4376 452.891 14.8671 452.891 15.3314V21.0422H450.063V15.8537C450.063 15.4939 449.95 15.1979 449.725 14.9658C449.499 14.7336 449.213 14.6175 448.866 14.6175C448.345 14.6175 447.854 14.8497 447.391 15.3139V21.0422H444.562V8.5237ZM454.047 12.3367H456.875V21.0422H454.047V12.3367ZM453.908 10.0211C453.908 9.55675 454.053 9.18244 454.342 8.89807C454.631 8.61365 455.007 8.47147 455.47 8.47147C455.91 8.47147 456.277 8.61365 456.572 8.89807C456.867 9.18244 457.014 9.55675 457.014 10.0211C457.014 10.4621 456.867 10.8278 456.572 11.1179C456.277 11.4081 455.91 11.5532 455.47 11.5532C455.007 11.5532 454.631 11.4081 454.342 11.1179C454.053 10.8278 453.908 10.4621 453.908 10.0211ZM464.018 16.6894C464.018 16.051 463.859 15.5374 463.54 15.1486C463.222 14.7597 462.809 14.5653 462.3 14.5653C461.791 14.5653 461.334 14.7684 460.929 15.1747V18.2042C461.334 18.6104 461.791 18.8136 462.3 18.8136C462.809 18.8136 463.222 18.6163 463.54 18.2216C463.859 17.8269 464.018 17.3163 464.018 16.6894ZM458.101 12.3367H460.929V12.8068C461.588 12.3541 462.265 12.1278 462.959 12.1278C463.538 12.1278 464.07 12.2409 464.556 12.4673C465.041 12.6936 465.458 13.007 465.805 13.4074C466.152 13.8079 466.421 14.2867 466.612 14.8439C466.803 15.401 466.898 16.0162 466.898 16.6894C466.898 17.3626 466.803 17.9778 466.612 18.535C466.421 19.0921 466.152 19.5709 465.805 19.9714C465.458 20.3718 465.041 20.6853 464.556 20.9116C464.07 21.1379 463.538 21.2511 462.959 21.2511C462.265 21.2511 461.588 21.0248 460.929 20.5721V24.8551H458.101V12.3367ZM470.674 18.8136H472.53C472.97 18.8136 473.331 18.683 473.615 18.4218C473.898 18.1606 474.04 17.8269 474.04 17.4207C474.04 17.0144 473.898 16.6808 473.615 16.4196C473.331 16.1584 472.97 16.0278 472.53 16.0278H470.674V18.8136ZM470.674 13.8689H472.287C472.692 13.8689 473.028 13.747 473.294 13.5033C473.56 13.2595 473.693 12.9519 473.693 12.5804C473.693 12.1974 473.56 11.8869 473.294 11.6489C473.028 11.411 472.692 11.2921 472.287 11.2921H470.674V13.8689ZM467.915 9.06344H472.826C473.358 9.06344 473.843 9.14469 474.283 9.30719C474.723 9.46969 475.104 9.69607 475.428 9.98619C475.752 10.2764 476.004 10.6188 476.183 11.0134C476.362 11.4081 476.452 11.8376 476.452 12.3019C476.452 12.8939 476.313 13.422 476.035 13.8863C475.758 14.3506 475.376 14.693 474.89 14.9135C475.515 15.1457 475.998 15.5084 476.339 16.0017C476.681 16.495 476.851 17.0609 476.851 17.6993C476.851 18.1868 476.759 18.6366 476.574 19.0486C476.389 19.4607 476.131 19.8147 475.801 20.1107C475.472 20.4067 475.079 20.6359 474.621 20.7984C474.164 20.9609 473.664 21.0422 473.12 21.0422H467.915V9.06344ZM477.191 16.6894C477.191 16.0162 477.307 15.401 477.538 14.8439C477.769 14.2867 478.093 13.8079 478.51 13.4074C478.927 13.007 479.421 12.6936 479.994 12.4673C480.566 12.2409 481.194 12.1278 481.876 12.1278C482.559 12.1278 483.187 12.2409 483.759 12.4673C484.332 12.6936 484.823 13.007 485.234 13.4074C485.645 13.8079 485.965 14.2867 486.197 14.8439C486.428 15.401 486.544 16.0162 486.544 16.6894C486.544 17.3511 486.428 17.9633 486.197 18.5263C485.965 19.0893 485.645 19.5709 485.234 19.9714C484.823 20.3718 484.332 20.6853 483.759 20.9116C483.187 21.1379 482.559 21.2511 481.876 21.2511C481.194 21.2511 480.566 21.1379 479.994 20.9116C479.421 20.6853 478.927 20.3718 478.51 19.9714C478.093 19.5709 477.769 19.0893 477.538 18.5263C477.307 17.9633 477.191 17.3511 477.191 16.6894ZM480.089 16.6894C480.089 17.3511 480.254 17.8821 480.584 18.2825C480.913 18.683 481.344 18.8832 481.876 18.8832C482.397 18.8832 482.825 18.683 483.161 18.2825C483.496 17.8821 483.664 17.3511 483.664 16.6894C483.664 16.0278 483.496 15.4968 483.161 15.0963C482.825 14.6959 482.397 14.4956 481.876 14.4956C481.344 14.4956 480.913 14.6959 480.584 15.0963C480.254 15.4968 480.089 16.0278 480.089 16.6894ZM493.148 16.6894C493.148 16.051 492.989 15.5374 492.671 15.1486C492.353 14.7597 491.94 14.5653 491.431 14.5653C490.921 14.5653 490.465 14.7684 490.06 15.1747V18.2042C490.465 18.6104 490.921 18.8136 491.431 18.8136C491.94 18.8136 492.353 18.6163 492.671 18.2216C492.989 17.8269 493.148 17.3163 493.148 16.6894ZM487.231 8.5237H490.06V12.8068C490.719 12.3541 491.396 12.1278 492.09 12.1278C492.668 12.1278 493.2 12.2409 493.686 12.4673C494.172 12.6936 494.589 13.007 494.936 13.4074C495.283 13.8079 495.552 14.2867 495.742 14.8439C495.934 15.401 496.029 16.0162 496.029 16.6894C496.029 17.3626 495.934 17.9778 495.742 18.535C495.552 19.0921 495.283 19.5709 494.936 19.9714C494.589 20.3718 494.172 20.6853 493.686 20.9116C493.2 21.1379 492.668 21.2511 492.09 21.2511C491.396 21.2511 490.719 21.0248 490.06 20.5721V21.0422H487.231V8.5237Z" fill="white"/>
</g>
<g clip-path="url(#clip3)">
<path d="M666.753 19.8448C662.094 19.8448 658.303 16.0593 658.303 11.4065V2.96814H675.203V11.4065C675.203 16.0588 671.412 19.8448 666.753 19.8448ZM659.84 4.50238V11.4065C659.84 15.2129 662.941 18.3106 666.753 18.3106C670.565 18.3106 673.667 15.2134 673.667 11.4065V4.50238H659.84Z" fill="white"/>
<path d="M670.594 8.08215H662.913V9.6164H663.963L663.431 13.8678H664.979L665.512 9.6164H667.995L668.528 13.8678H670.076L669.544 9.6164H670.594V8.08215Z" fill="white"/>
<path d="M579.674 5.50363C584.207 5.50363 586.625 7.61577 586.625 10.6331C586.625 13.0475 584.811 14.8579 582.394 15.5222V15.5826C586.171 16.518 587.531 18.7206 587.531 21.0445C587.531 24.3636 585.113 26.6271 580.581 26.6271H570.609V26.0236C572.423 26.0236 572.423 26.0236 572.423 24.0618V8.06837C572.423 6.10658 572.423 6.10658 570.609 6.10658V5.50311H579.674V5.50363ZM577.861 15.4614C580.581 15.4614 581.638 13.651 581.638 10.784C581.638 8.21873 580.581 6.10658 578.768 6.10658H577.257V15.4614H577.861ZM577.257 16.0649V26.0236H579.372C581.789 26.0236 582.545 23.6093 582.545 20.8937C582.545 18.178 581.185 16.0654 578.466 16.0654H577.257V16.0649Z" fill="white"/>
<path d="M588.738 19.2338C588.738 14.1038 592.968 11.2368 596.745 11.2368C600.22 11.2368 603.362 12.7454 602.456 17.8754H593.512C593.512 21.9494 595.838 23.458 598.105 23.458C600.825 23.458 602.033 21.9494 602.638 20.8928H602.94C602.336 23.9101 600.22 26.928 596.443 26.928C591.457 26.9285 588.738 23.3077 588.738 19.2338ZM593.512 17.2719H597.954C598.468 15.2202 598.891 11.8402 596.594 11.8402C594.872 11.8402 593.633 13.4399 593.512 17.2719Z" fill="white"/>
<path d="M615.327 15.4614C615.327 14.1036 614.421 13.651 613.514 13.651C612.578 13.651 611.55 14.1036 610.493 15.0088V24.0613C610.493 26.0231 610.493 26.0231 612.306 26.0231V26.6266H603.845V26.0231C605.658 26.0231 605.658 26.0231 605.658 24.0613V14.5562C605.658 13.0475 605.658 13.0475 604.147 13.0475V12.5949L610.341 11.2371H610.583L610.492 14.4053H610.553C611.701 12.444 613.877 11.2371 616.083 11.2371C618.107 11.2371 620.162 12.444 620.162 15.7637V24.0624C620.162 26.0241 620.162 26.0241 621.975 26.0241V26.6276H614.119V26.0241C615.327 26.0241 615.327 26.0241 615.327 24.0624V15.4614Z" fill="white"/>
<path d="M631.945 23.4585C634.665 23.4585 635.873 21.9499 636.477 20.8933H636.78C636.175 23.9107 634.06 26.9285 630.283 26.9285C625.297 26.9285 622.578 23.3077 622.578 19.2338C622.578 14.1038 626.808 11.2368 630.585 11.2368C634.362 11.2368 636.357 13.0778 636.357 15.0089C636.357 16.0645 635.874 17.1211 634.061 17.1211C632.55 17.1211 632.217 16.1857 632.247 15.5521C632.399 13.3489 632.247 11.8402 630.434 11.8402C628.319 11.8402 627.352 14.6469 627.352 18.147C627.352 22.1007 629.679 23.4585 631.945 23.4585Z" fill="white"/>
<path d="M649.167 15.4613C649.167 14.1035 648.261 13.651 647.354 13.651C646.418 13.651 645.39 14.1035 644.333 15.0088V24.0613C644.333 26.0231 644.333 26.0231 646.146 26.0231V26.6266H637.685V26.0231C639.499 26.0231 639.499 26.0231 639.499 24.0613V6.71055C639.499 5.20137 639.499 5.20137 637.988 5.20137V4.74876L644.092 3.39096H644.333V14.4053H644.394C645.542 12.444 647.717 11.2371 649.924 11.2371C651.949 11.2371 654.003 12.444 654.003 15.7636V24.0623C654.003 26.0241 654.003 26.0241 655.817 26.0241V26.6276H647.959V26.0241C649.167 26.0241 649.167 26.0241 649.167 24.0623V15.4613Z" fill="white"/>
</g>
<g clip-path="url(#clip4)">
<path fill-rule="evenodd" clip-rule="evenodd" d="M758.984 13.3644C758.805 13.2048 758.554 13.1514 758.325 13.2237L752.094 15.1901L760.998 6.67253C761.272 6.40968 761.282 5.97405 761.019 5.6996C761.006 5.68645 760.994 5.6737 760.98 5.66171L757.655 2.6915C757.372 2.43831 756.937 2.46343 756.684 2.74716C756.655 2.78001 756.629 2.81519 756.607 2.85269L749.371 15.003C749.241 15.221 749.284 15.5008 749.474 15.6698L750.884 16.9315C751.057 17.0861 751.297 17.1422 751.521 17.0799L756.569 15.6728L750.759 24.8035C750.478 25.2445 751.06 25.7223 751.437 25.3605L761.145 16.0548C761.355 15.8518 761.361 15.5163 761.158 15.3057C761.149 15.2964 761.14 15.2875 761.13 15.2786L758.984 13.3644Z" fill="white"/>
<path fill-rule="evenodd" clip-rule="evenodd" d="M804.303 12.0623L803.339 11.2027C803.209 11.0858 803.008 11.0972 802.891 11.228C802.865 11.2576 802.844 11.2918 802.83 11.3293L800.848 16.6773C799.898 19.2394 798.772 20.1165 798.066 20.1165C797.841 20.1165 797.52 19.9525 797.52 19.4061C797.52 19.2203 797.552 18.8277 797.782 18.2073L799.671 13.1158C799.809 12.7443 799.705 12.3263 799.409 12.0627L798.445 11.2027C798.314 11.0858 798.113 11.0972 797.996 11.228C797.97 11.2576 797.949 11.2918 797.935 11.3293L795.953 16.6773C795.004 19.2394 793.878 20.1165 793.173 20.1165C792.947 20.1165 792.626 19.9525 792.626 19.4061C792.626 19.2203 792.659 18.8277 792.888 18.2073L797.012 7.0741C797.15 6.70292 797.046 6.285 796.751 6.02092L795.786 5.16093C795.655 5.04408 795.455 5.05577 795.338 5.18625C795.311 5.21585 795.291 5.25052 795.277 5.28752L791.056 16.6773C790.756 17.4863 790.615 18.3089 790.615 18.788C790.615 20.4083 791.709 21.3383 792.887 21.3383C793.771 21.3383 794.746 20.7732 795.629 19.6098C795.932 20.7132 796.824 21.3383 797.782 21.3383C798.315 21.3383 798.883 21.13 799.445 20.712L798.057 24.455C796.621 23.775 794.983 23.6582 793.465 24.1287C793.28 24.1852 793.318 24.455 793.509 24.4737C795.484 24.6595 797.11 25.5133 798.309 27.1176C798.525 27.4035 798.931 27.4607 799.217 27.2453C799.316 27.171 799.392 27.0701 799.434 26.954L804.564 13.1174C804.703 12.7455 804.6 12.3267 804.303 12.0623Z" fill="white"/>
<path fill-rule="evenodd" clip-rule="evenodd" d="M783.614 20.1084C783.227 20.1084 782.938 19.7282 782.938 19.1619C782.938 18.9726 782.997 18.5217 783.229 17.8899C784.555 14.4319 786.358 12.555 787.167 12.555C787.702 12.555 787.783 13.1111 787.783 13.7734C787.783 16.4726 785.375 20.1064 783.614 20.1064V20.1084ZM787.905 10.9413C786.951 10.9413 786.064 11.4894 785.27 12.326L787.295 6.81733C787.435 6.43871 787.33 6.01285 787.031 5.74416L786.055 4.86746C785.924 4.7484 785.72 4.75991 785.603 4.89326C785.576 4.92342 785.555 4.95835 785.541 4.99645L781.279 16.602C780.976 17.4267 780.835 18.2645 780.835 18.7527C780.835 20.3243 781.935 21.3514 783.431 21.3514C786.961 21.3514 790.146 17.1664 790.146 13.7909C790.144 12.1379 789.348 10.9413 787.905 10.9413Z" fill="white"/>
<path fill-rule="evenodd" clip-rule="evenodd" d="M774.596 20.1084C774.208 20.1084 773.92 19.7282 773.92 19.1619C773.92 18.9726 773.979 18.5217 774.211 17.8899C775.538 14.4319 777.344 12.555 778.154 12.555C778.689 12.555 778.771 13.1111 778.771 13.7734C778.77 16.4726 776.362 20.1064 774.595 20.1064L774.596 20.1084ZM776.255 12.326L778.282 6.81733C778.422 6.43871 778.317 6.01285 778.018 5.74416L777.041 4.86746C776.908 4.7484 776.706 4.75991 776.587 4.89326C776.561 4.92342 776.54 4.95835 776.526 4.99645L772.258 16.602C771.297 19.2122 770.159 20.1064 769.445 20.1064C769.217 20.1064 768.893 19.9397 768.893 19.3825C768.893 19.1932 768.926 18.7932 769.158 18.1609L771.066 12.9729C771.206 12.5947 771.101 12.1684 770.802 11.8994L769.827 11.0231C769.695 10.9044 769.491 10.9159 769.374 11.0489C769.347 11.0794 769.326 11.1139 769.312 11.1524L767.307 16.602C766.348 19.2127 765.209 20.1064 764.496 20.1064C764.267 20.1064 763.942 19.9397 763.942 19.3825C763.942 19.1932 763.976 18.7932 764.208 18.1609L766.115 12.9729C766.255 12.5947 766.15 12.1689 765.85 11.8998L764.876 11.0234C764.744 10.9048 764.541 10.9163 764.423 11.0493C764.396 11.0794 764.375 11.1148 764.361 11.1528L762.357 16.602C762.054 17.4267 761.912 18.2645 761.912 18.7527C761.912 20.4041 763.017 21.3514 764.209 21.3514C765.102 21.3514 766.088 20.7756 766.981 19.5905C767.287 20.7149 768.189 21.3514 769.157 21.3514C770.053 21.3514 771.044 20.7724 771.936 19.5802C772.256 20.6704 773.198 21.3514 774.409 21.3514C777.944 21.3514 781.135 17.1664 781.135 13.7909C781.134 12.1379 780.337 10.9413 778.893 10.9413C777.937 10.9413 777.049 11.4894 776.255 12.326Z" fill="white"/>
</g>
<g clip-path="url(#clip5)">
<path fill-rule="evenodd" clip-rule="evenodd" d="M893.092 2.68859C892.978 2.82226 892.971 2.99744 892.955 6.54559C892.945 8.79929 892.914 10.2629 892.879 10.2629C892.847 10.2629 892.77 10.2067 892.708 10.138C892.58 9.99438 891.912 9.55465 891.428 9.29448C890.145 8.60496 887.95 8.24305 886.403 8.4661C885.282 8.62731 883.329 9.36471 882.879 9.79606C882.81 9.8623 882.556 10.051 882.314 10.2158C881.894 10.5023 880.465 11.9711 880.465 12.116C880.465 12.1535 880.305 12.4312 880.11 12.7333C879.528 13.6355 879.269 14.3167 878.914 15.8828C878.636 17.1091 878.757 19.115 879.212 20.8371C879.386 21.4935 880.212 23.1319 880.414 23.2205C880.442 23.2325 880.465 23.2736 880.465 23.3115C880.465 23.545 881.598 24.7564 882.408 25.3888C884.599 27.0991 887.94 27.6094 890.471 26.6202C891.15 26.3553 892.375 25.6917 892.682 25.4232L892.91 25.2233L892.941 25.9846C892.969 26.6745 892.986 26.7619 893.124 26.9171L893.276 27.0887H894.669C895.947 27.0887 896.074 27.0784 896.21 26.9614L896.357 26.8345V15.5585C896.357 5.62224 896.347 4.27113 896.263 4.18614C896.212 4.13307 895.972 3.97904 895.731 3.84337C895.489 3.7077 895.235 3.54451 895.167 3.48026C894.362 2.73328 893.375 2.3566 893.092 2.68859ZM945.769 2.67024C945.681 2.77398 945.666 2.96791 945.666 3.98543C945.666 5.34571 945.661 5.33095 946.181 5.68169C946.363 5.8046 946.566 5.95662 946.631 6.01967C946.696 6.08271 946.908 6.22038 947.101 6.32533C947.294 6.43027 947.645 6.65611 947.88 6.8269C948.441 7.23511 948.774 7.24708 948.959 6.86641C949.097 6.58389 949.094 3.02856 948.955 2.74485L948.86 2.54853H947.367C945.999 2.54853 945.864 2.55891 945.769 2.67024ZM982.812 2.59362C981.921 2.71333 980.416 3.19336 979.659 3.59877C979.462 3.70452 979.223 3.81145 979.129 3.83579C978.927 3.88886 977.73 4.7344 977.113 5.26032C976.305 5.94984 974.994 7.4849 974.693 8.0962C974.482 8.52236 974.177 9.06704 974.132 9.09657C974.053 9.14844 973.459 10.6687 973.313 11.1943C972.748 13.2201 972.749 13.2105 972.749 19.3962V24.7552L972.9 25.1973C972.984 25.4407 973.12 25.7188 973.203 25.8154C973.285 25.9124 973.399 26.0692 973.454 26.1645C973.598 26.4111 974.207 26.8214 974.645 26.9658C975.157 27.1346 984.498 27.1534 985.602 26.9874C987.369 26.722 989.554 25.8214 990.773 24.8553C990.98 24.6913 991.207 24.5318 991.277 24.5006C991.346 24.4691 991.666 24.1782 991.989 23.8542C992.312 23.5298 992.601 23.2544 992.631 23.2421C992.662 23.2297 992.905 22.9317 993.172 22.5797C993.44 22.2277 993.717 21.8702 993.792 21.7856C993.865 21.701 994.03 21.4158 994.158 21.1516C994.286 20.887 994.428 20.626 994.475 20.571C994.521 20.5155 994.696 20.156 994.866 19.7718C996.134 16.8911 996.178 12.9564 994.975 10.0295C994.78 9.55425 994.582 9.12091 994.536 9.06585C994.49 9.01118 994.351 8.75181 994.228 8.49004C993.763 7.50565 992.184 5.64977 991.212 4.94868C991.04 4.82378 990.758 4.61151 990.585 4.47584C988.817 3.08722 985.362 2.25086 982.812 2.59362ZM985.194 7.17405C986.56 7.55153 987.655 8.72308 988.014 10.1927C988.18 10.871 988.151 15.1199 987.977 15.7424C987.836 16.2463 987.67 16.6298 987.495 16.8588C986.693 17.9115 986.176 18.3176 985.269 18.6077C983.429 19.196 981.244 17.9446 980.661 15.969C980.474 15.3369 980.371 11.2705 980.52 10.4561C980.961 8.0563 983.058 6.58389 985.194 7.17405ZM906.702 8.37672C905.356 8.49484 903.223 9.29688 902.49 9.96086C902.358 10.0798 902.154 10.2302 902.035 10.2948C901.615 10.5239 900.357 11.9868 900.002 12.6571C898.961 14.6271 898.646 15.8043 898.646 17.7243C898.646 25.7863 907.646 30.0902 913.314 24.7388C915.248 22.9125 915.326 22.5071 913.808 22.1435C913.382 22.0418 912.773 21.8854 912.454 21.7968C911.592 21.5566 911.444 21.5721 911.048 21.9452C909.177 23.7082 906.531 23.9209 904.508 22.4711C903.523 21.7652 902.694 20.6939 902.44 19.7997L902.357 19.5072H909.115H915.873L916.076 19.3065L916.278 19.1058L916.243 17.7602C916.223 16.975 916.171 16.2348 916.117 15.9826C916.068 15.7448 915.981 15.3258 915.923 15.0512C915.808 14.4986 915.279 13.272 914.934 12.7568C914.811 12.5741 914.693 12.3646 914.672 12.2912C914.598 12.0318 913.282 10.5925 912.846 10.2932C912.673 10.1751 912.427 9.98879 912.298 9.87906C911.173 8.92419 908.536 8.21631 906.702 8.37672ZM924.945 8.4681C924.405 8.51837 923.504 8.74502 923.217 8.90224C923.119 8.95571 922.995 8.99961 922.941 8.99961C922.15 8.99961 920.153 11.0003 919.397 12.5498C918.475 14.4379 918.449 14.6873 918.471 21.3918L918.488 26.7679L918.664 26.9283C918.89 27.1346 921.399 27.1817 921.683 26.985C921.935 26.809 921.935 26.8085 921.968 20.9704L921.999 15.2843L922.191 14.7815C922.297 14.505 922.542 14.056 922.735 13.7839C923.372 12.8842 923.318 12.9336 924.225 12.4333C925.19 11.9001 926.229 11.9452 927.17 12.561C927.418 12.7237 927.642 12.8566 927.666 12.8566C927.897 12.8566 928.817 14.3143 929.025 15.0093C929.283 15.8741 929.302 16.3389 929.302 21.7059C929.303 26.7376 929.304 26.7994 929.43 26.9431C929.639 27.1809 932.218 27.1681 932.481 26.9283L932.657 26.7679L932.691 21.1923L932.726 15.6167L932.919 14.985C934.119 11.0678 938.506 11.1392 939.818 15.0976L939.99 15.6167L940.022 21.2429C940.049 25.876 940.07 26.8884 940.141 26.979C940.298 27.1801 943.09 27.1406 943.272 26.9347L943.409 26.781V21.1939C943.409 14.8968 943.416 15.0237 942.941 13.5576C942.531 12.294 941.567 10.7509 940.901 10.2921C940.781 10.2091 940.56 10.0231 940.41 9.87946C939.226 8.74144 936.569 8.13052 934.862 8.60417C933.387 9.01357 932.433 9.58737 931.421 10.6727L930.938 11.1915L930.669 10.8567C929.345 9.2079 927.092 8.26739 924.945 8.4681ZM946.059 8.44775C945.635 8.53434 945.666 7.80652 945.666 17.8153V26.813L945.831 26.951C945.997 27.0895 948.464 27.1705 948.766 27.0472C949.06 26.9279 949.051 27.2068 949.051 17.7782C949.051 8.10538 949.07 8.61414 948.699 8.46451C948.547 8.40306 946.344 8.3891 946.059 8.44775ZM958.612 8.53035C957.844 8.6756 956.738 9.04269 956.195 9.33319C955.775 9.55785 955.124 9.97961 955.07 10.0626C955.053 10.0886 954.911 10.1935 954.756 10.2948C954.601 10.3966 954.209 10.7677 953.886 11.1196C951.755 13.436 950.958 16.1893 951.437 19.5738C951.771 21.9273 953.675 24.7464 955.697 25.8801C956.536 26.3505 956.716 26.4367 957.314 26.655C960.427 27.7914 964.03 26.88 966.417 24.3526C968.406 22.2473 969.408 18.6509 968.778 15.8828C968.423 14.3202 968.197 13.7065 967.678 12.8902C967.516 12.6339 967.308 12.29 967.218 12.1251C966.985 11.7018 965.889 10.5714 965.275 10.1209C963.323 8.68996 960.868 8.10379 958.612 8.53035ZM983.584 8.47209C982.869 8.65126 982.173 9.32282 981.909 10.0882L981.745 10.5622V12.8902C981.745 15.1534 981.75 15.2296 981.891 15.6498C982.619 17.8217 985.591 18.012 986.564 15.9491C986.848 15.3465 986.864 15.1578 986.843 12.7226L986.824 10.4293L986.63 9.99717C986.083 8.77694 984.843 8.15646 983.584 8.47209ZM984.698 11.2872L984.912 11.5135V13.2344C984.912 14.7472 984.899 14.9751 984.805 15.1199C984.537 15.5321 984.197 15.5704 983.871 15.2244L983.658 14.9982V13.2556V11.5135L983.871 11.2872C984.025 11.1244 984.14 11.061 984.284 11.061C984.43 11.061 984.545 11.1244 984.698 11.2872ZM888.821 12.1875C892.641 13.2293 894.202 17.8879 891.842 21.2031C891.396 21.8295 891.231 21.9923 890.436 22.5933C888.402 24.1299 885.233 23.6048 883.451 21.4357C880.096 17.352 883.878 10.8391 888.821 12.1875ZM908.833 12.1914C910.455 12.7218 911.742 13.8913 912.343 15.3812L912.559 15.916H907.454H902.35L902.435 15.6601C902.612 15.1283 903.033 14.3781 903.317 14.0872C903.389 14.0138 903.509 13.8681 903.585 13.7628C904.557 12.4152 907.146 11.64 908.833 12.1914ZM961.495 12.2266C962.569 12.5565 963.166 12.9293 963.923 13.7404C967.743 17.8396 964.157 24.6032 958.85 23.3068C957.966 23.0909 957.645 22.9173 956.628 22.1017C955.109 20.8838 954.407 18.4458 954.945 16.2531C955.683 13.2397 958.72 11.3734 961.495 12.2266ZM990.717 16.6741C990.834 16.7986 990.93 16.965 990.93 17.0444C990.93 17.4194 990.261 19.206 990.058 19.3743C990.036 19.3923 989.842 19.6468 989.625 19.9393C989.409 20.2322 989.138 20.5462 989.025 20.6376C988.909 20.7294 988.608 20.9724 988.353 21.1783C987.656 21.7418 987.014 22.0438 985.758 22.4005C984.22 22.8375 981.773 22.3714 980.436 21.387C979.515 20.7094 978.442 19.5311 978.299 19.0415C978.271 18.9502 978.157 18.6792 978.044 18.439C977.501 17.2894 977.589 16.6809 978.298 16.6809C978.654 16.6809 978.793 16.8245 978.962 17.37C979.037 17.6126 979.193 17.9849 979.309 18.1972C979.425 18.4094 979.521 18.607 979.521 18.6361C979.521 18.8935 980.805 20.174 981.351 20.4597C984.66 22.1954 988.485 20.7993 989.519 17.4789C989.843 16.4363 990.242 16.1693 990.717 16.6741Z" fill="white"/>
<path fill-rule="evenodd" clip-rule="evenodd" d="M893.092 2.68859C892.978 2.82226 892.971 2.99744 892.955 6.54559C892.945 8.79929 892.914 10.2629 892.879 10.2629C892.847 10.2629 892.77 10.2067 892.708 10.138C892.58 9.99438 891.912 9.55465 891.428 9.29448C890.145 8.60496 887.95 8.24305 886.403 8.4661C885.282 8.62731 883.329 9.36471 882.879 9.79606C882.81 9.8623 882.556 10.051 882.314 10.2158C881.894 10.5023 880.465 11.9711 880.465 12.116C880.465 12.1535 880.305 12.4312 880.11 12.7333C879.528 13.6355 879.269 14.3167 878.914 15.8828C878.636 17.1091 878.757 19.115 879.212 20.8371C879.386 21.4935 880.212 23.1319 880.414 23.2205C880.442 23.2325 880.465 23.2736 880.465 23.3115C880.465 23.545 881.598 24.7564 882.408 25.3888C884.599 27.0991 887.94 27.6094 890.471 26.6202C891.15 26.3553 892.375 25.6917 892.682 25.4232L892.91 25.2233L892.941 25.9846C892.969 26.6745 892.986 26.7619 893.124 26.9171L893.276 27.0887H894.669C895.947 27.0887 896.074 27.0784 896.21 26.9614L896.357 26.8345V15.5585C896.357 5.62224 896.347 4.27113 896.263 4.18614C896.212 4.13307 895.972 3.97904 895.731 3.84337C895.489 3.7077 895.235 3.54451 895.167 3.48026C894.362 2.73328 893.375 2.3566 893.092 2.68859ZM945.769 2.67024C945.681 2.77398 945.666 2.96791 945.666 3.98543C945.666 5.34571 945.661 5.33095 946.181 5.68169C946.363 5.8046 946.566 5.95662 946.631 6.01967C946.696 6.08271 946.908 6.22038 947.101 6.32533C947.294 6.43027 947.645 6.65611 947.88 6.8269C948.441 7.23511 948.774 7.24708 948.959 6.86641C949.097 6.58389 949.094 3.02856 948.955 2.74485L948.86 2.54853H947.367C945.999 2.54853 945.864 2.55891 945.769 2.67024ZM982.812 2.59362C981.921 2.71333 980.416 3.19336 979.659 3.59877C979.462 3.70452 979.223 3.81145 979.129 3.83579C978.927 3.88886 977.73 4.7344 977.113 5.26032C976.305 5.94984 974.994 7.4849 974.693 8.0962C974.482 8.52236 974.177 9.06704 974.132 9.09657C974.053 9.14844 973.459 10.6687 973.313 11.1943C972.748 13.2201 972.749 13.2105 972.749 19.3962V24.7552L972.9 25.1973C972.984 25.4407 973.12 25.7188 973.203 25.8154C973.285 25.9124 973.399 26.0692 973.454 26.1645C973.598 26.4111 974.207 26.8214 974.645 26.9658C975.157 27.1346 984.498 27.1534 985.602 26.9874C987.369 26.722 989.554 25.8214 990.773 24.8553C990.98 24.6913 991.207 24.5318 991.277 24.5006C991.346 24.4691 991.666 24.1782 991.989 23.8542C992.312 23.5298 992.601 23.2544 992.631 23.2421C992.662 23.2297 992.905 22.9317 993.172 22.5797C993.44 22.2277 993.717 21.8702 993.792 21.7856C993.865 21.701 994.03 21.4158 994.158 21.1516C994.286 20.887 994.428 20.626 994.475 20.571C994.521 20.5155 994.696 20.156 994.866 19.7718C996.134 16.8911 996.178 12.9564 994.975 10.0295C994.78 9.55425 994.582 9.12091 994.536 9.06585C994.49 9.01118 994.351 8.75181 994.228 8.49004C993.763 7.50565 992.184 5.64977 991.212 4.94868C991.04 4.82378 990.758 4.61151 990.585 4.47584C988.817 3.08722 985.362 2.25086 982.812 2.59362ZM985.194 7.17405C986.56 7.55153 987.655 8.72308 988.014 10.1927C988.18 10.871 988.151 15.1199 987.977 15.7424C987.836 16.2463 987.67 16.6298 987.495 16.8588C986.693 17.9115 986.176 18.3176 985.269 18.6077C983.429 19.196 981.244 17.9446 980.661 15.969C980.474 15.3369 980.371 11.2705 980.52 10.4561C980.961 8.0563 983.058 6.58389 985.194 7.17405ZM906.702 8.37672C905.356 8.49484 903.223 9.29688 902.49 9.96086C902.358 10.0798 902.154 10.2302 902.035 10.2948C901.615 10.5239 900.357 11.9868 900.002 12.6571C898.961 14.6271 898.646 15.8043 898.646 17.7243C898.646 25.7863 907.646 30.0902 913.314 24.7388C915.248 22.9125 915.326 22.5071 913.808 22.1435C913.382 22.0418 912.773 21.8854 912.454 21.7968C911.592 21.5566 911.444 21.5721 911.048 21.9452C909.177 23.7082 906.531 23.9209 904.508 22.4711C903.523 21.7652 902.694 20.6939 902.44 19.7997L902.357 19.5072H909.115H915.873L916.076 19.3065L916.278 19.1058L916.243 17.7602C916.223 16.975 916.171 16.2348 916.117 15.9826C916.068 15.7448 915.981 15.3258 915.923 15.0512C915.808 14.4986 915.279 13.272 914.934 12.7568C914.811 12.5741 914.693 12.3646 914.672 12.2912C914.598 12.0318 913.282 10.5925 912.846 10.2932C912.673 10.1751 912.427 9.98879 912.298 9.87906C911.173 8.92419 908.536 8.21631 906.702 8.37672ZM924.945 8.4681C924.405 8.51837 923.504 8.74502 923.217 8.90224C923.119 8.95571 922.995 8.99961 922.941 8.99961C922.15 8.99961 920.153 11.0003 919.397 12.5498C918.475 14.4379 918.449 14.6873 918.471 21.3918L918.488 26.7679L918.664 26.9283C918.89 27.1346 921.399 27.1817 921.683 26.985C921.935 26.809 921.935 26.8085 921.968 20.9704L921.999 15.2843L922.191 14.7815C922.297 14.505 922.542 14.056 922.735 13.7839C923.372 12.8842 923.318 12.9336 924.225 12.4333C925.19 11.9001 926.229 11.9452 927.17 12.561C927.418 12.7237 927.642 12.8566 927.666 12.8566C927.897 12.8566 928.817 14.3143 929.025 15.0093C929.283 15.8741 929.302 16.3389 929.302 21.7059C929.303 26.7376 929.304 26.7994 929.43 26.9431C929.639 27.1809 932.218 27.1681 932.481 26.9283L932.657 26.7679L932.691 21.1923L932.726 15.6167L932.919 14.985C934.119 11.0678 938.506 11.1392 939.818 15.0976L939.99 15.6167L940.022 21.2429C940.049 25.876 940.07 26.8884 940.141 26.979C940.298 27.1801 943.09 27.1406 943.272 26.9347L943.409 26.781V21.1939C943.409 14.8968 943.416 15.0237 942.941 13.5576C942.531 12.294 941.567 10.7509 940.901 10.2921C940.781 10.2091 940.56 10.0231 940.41 9.87946C939.226 8.74144 936.569 8.13052 934.862 8.60417C933.387 9.01357 932.433 9.58737 931.421 10.6727L930.938 11.1915L930.669 10.8567C929.345 9.2079 927.092 8.26739 924.945 8.4681ZM946.059 8.44775C945.635 8.53434 945.666 7.80652 945.666 17.8153V26.813L945.831 26.951C945.997 27.0895 948.464 27.1705 948.766 27.0472C949.06 26.9279 949.051 27.2068 949.051 17.7782C949.051 8.10538 949.07 8.61414 948.699 8.46451C948.547 8.40306 946.344 8.3891 946.059 8.44775ZM958.612 8.53035C957.844 8.6756 956.738 9.04269 956.195 9.33319C955.775 9.55785 955.124 9.97961 955.07 10.0626C955.053 10.0886 954.911 10.1935 954.756 10.2948C954.601 10.3966 954.209 10.7677 953.886 11.1196C951.755 13.436 950.958 16.1893 951.437 19.5738C951.771 21.9273 953.675 24.7464 955.697 25.8801C956.536 26.3505 956.716 26.4367 957.314 26.655C960.427 27.7914 964.03 26.88 966.417 24.3526C968.406 22.2473 969.408 18.6509 968.778 15.8828C968.423 14.3202 968.197 13.7065 967.678 12.8902C967.516 12.6339 967.308 12.29 967.218 12.1251C966.985 11.7018 965.889 10.5714 965.275 10.1209C963.323 8.68996 960.868 8.10379 958.612 8.53035ZM983.584 8.47209C982.869 8.65126 982.173 9.32282 981.909 10.0882L981.745 10.5622V12.8902C981.745 15.1534 981.75 15.2296 981.891 15.6498C982.619 17.8217 985.591 18.012 986.564 15.9491C986.848 15.3465 986.864 15.1578 986.843 12.7226L986.824 10.4293L986.63 9.99717C986.083 8.77694 984.843 8.15646 983.584 8.47209ZM984.698 11.2872L984.912 11.5135V13.2344C984.912 14.7472 984.899 14.9751 984.805 15.1199C984.537 15.5321 984.197 15.5704 983.871 15.2244L983.658 14.9982V13.2556V11.5135L983.871 11.2872C984.025 11.1244 984.14 11.061 984.284 11.061C984.43 11.061 984.545 11.1244 984.698 11.2872ZM888.821 12.1875C892.641 13.2293 894.202 17.8879 891.842 21.2031C891.396 21.8295 891.231 21.9923 890.436 22.5933C888.402 24.1299 885.233 23.6048 883.451 21.4357C880.096 17.352 883.878 10.8391 888.821 12.1875ZM908.833 12.1914C910.455 12.7218 911.742 13.8913 912.343 15.3812L912.559 15.916H907.454H902.35L902.435 15.6601C902.612 15.1283 903.033 14.3781 903.317 14.0872C903.389 14.0138 903.509 13.8681 903.585 13.7628C904.557 12.4152 907.146 11.64 908.833 12.1914ZM961.495 12.2266C962.569 12.5565 963.166 12.9293 963.923 13.7404C967.743 17.8396 964.157 24.6032 958.85 23.3068C957.966 23.0909 957.645 22.9173 956.628 22.1017C955.109 20.8838 954.407 18.4458 954.945 16.2531C955.683 13.2397 958.72 11.3734 961.495 12.2266ZM990.717 16.6741C990.834 16.7986 990.93 16.965 990.93 17.0444C990.93 17.4194 990.261 19.206 990.058 19.3743C990.036 19.3923 989.842 19.6468 989.625 19.9393C989.409 20.2322 989.138 20.5462 989.025 20.6376C988.909 20.7294 988.608 20.9724 988.353 21.1783C987.656 21.7418 987.014 22.0438 985.758 22.4005C984.22 22.8375 981.773 22.3714 980.436 21.387C979.515 20.7094 978.442 19.5311 978.299 19.0415C978.271 18.9502 978.157 18.6792 978.044 18.439C977.501 17.2894 977.589 16.6809 978.298 16.6809C978.654 16.6809 978.793 16.8245 978.962 17.37C979.037 17.6126 979.193 17.9849 979.309 18.1972C979.425 18.4094 979.521 18.607 979.521 18.6361C979.521 18.8935 980.805 20.174 981.351 20.4597C984.66 22.1954 988.485 20.7993 989.519 17.4789C989.843 16.4363 990.242 16.1693 990.717 16.6741Z" fill="white"/>
<path fill-rule="evenodd" clip-rule="evenodd" d="M893.092 2.68859C892.978 2.82226 892.971 2.99744 892.955 6.54559C892.945 8.79929 892.914 10.2629 892.879 10.2629C892.847 10.2629 892.77 10.2067 892.708 10.138C892.58 9.99438 891.912 9.55465 891.428 9.29448C890.145 8.60496 887.95 8.24305 886.403 8.4661C885.282 8.62731 883.329 9.36471 882.879 9.79606C882.81 9.8623 882.556 10.051 882.314 10.2158C881.894 10.5023 880.465 11.9711 880.465 12.116C880.465 12.1535 880.305 12.4312 880.11 12.7333C879.528 13.6355 879.269 14.3167 878.914 15.8828C878.636 17.1091 878.757 19.115 879.212 20.8371C879.386 21.4935 880.212 23.1319 880.414 23.2205C880.442 23.2325 880.465 23.2736 880.465 23.3115C880.465 23.545 881.598 24.7564 882.408 25.3888C884.599 27.0991 887.94 27.6094 890.471 26.6202C891.15 26.3553 892.375 25.6917 892.682 25.4232L892.91 25.2233L892.941 25.9846C892.969 26.6745 892.986 26.7619 893.124 26.9171L893.276 27.0887H894.669C895.947 27.0887 896.074 27.0784 896.21 26.9614L896.357 26.8345V15.5585C896.357 5.62224 896.347 4.27113 896.263 4.18614C896.212 4.13307 895.972 3.97904 895.731 3.84337C895.489 3.7077 895.235 3.54451 895.167 3.48026C894.362 2.73328 893.375 2.3566 893.092 2.68859ZM945.769 2.67024C945.681 2.77398 945.666 2.96791 945.666 3.98543C945.666 5.34571 945.661 5.33095 946.181 5.68169C946.363 5.8046 946.566 5.95662 946.631 6.01967C946.696 6.08271 946.908 6.22038 947.101 6.32533C947.294 6.43027 947.645 6.65611 947.88 6.8269C948.441 7.23511 948.774 7.24708 948.959 6.86641C949.097 6.58389 949.094 3.02856 948.955 2.74485L948.86 2.54853H947.367C945.999 2.54853 945.864 2.55891 945.769 2.67024ZM982.812 2.59362C981.921 2.71333 980.416 3.19336 979.659 3.59877C979.462 3.70452 979.223 3.81145 979.129 3.83579C978.927 3.88886 977.73 4.7344 977.113 5.26032C976.305 5.94984 974.994 7.4849 974.693 8.0962C974.482 8.52236 974.177 9.06704 974.132 9.09657C974.053 9.14844 973.459 10.6687 973.313 11.1943C972.748 13.2201 972.749 13.2105 972.749 19.3962V24.7552L972.9 25.1973C972.984 25.4407 973.12 25.7188 973.203 25.8154C973.285 25.9124 973.399 26.0692 973.454 26.1645C973.598 26.4111 974.207 26.8214 974.645 26.9658C975.157 27.1346 984.498 27.1534 985.602 26.9874C987.369 26.722 989.554 25.8214 990.773 24.8553C990.98 24.6913 991.207 24.5318 991.277 24.5006C991.346 24.4691 991.666 24.1782 991.989 23.8542C992.312 23.5298 992.601 23.2544 992.631 23.2421C992.662 23.2297 992.905 22.9317 993.172 22.5797C993.44 22.2277 993.717 21.8702 993.792 21.7856C993.865 21.701 994.03 21.4158 994.158 21.1516C994.286 20.887 994.428 20.626 994.475 20.571C994.521 20.5155 994.696 20.156 994.866 19.7718C996.134 16.8911 996.178 12.9564 994.975 10.0295C994.78 9.55425 994.582 9.12091 994.536 9.06585C994.49 9.01118 994.351 8.75181 994.228 8.49004C993.763 7.50565 992.184 5.64977 991.212 4.94868C991.04 4.82378 990.758 4.61151 990.585 4.47584C988.817 3.08722 985.362 2.25086 982.812 2.59362ZM985.194 7.17405C986.56 7.55153 987.655 8.72308 988.014 10.1927C988.18 10.871 988.151 15.1199 987.977 15.7424C987.836 16.2463 987.67 16.6298 987.495 16.8588C986.693 17.9115 986.176 18.3176 985.269 18.6077C983.429 19.196 981.244 17.9446 980.661 15.969C980.474 15.3369 980.371 11.2705 980.52 10.4561C980.961 8.0563 983.058 6.58389 985.194 7.17405ZM906.702 8.37672C905.356 8.49484 903.223 9.29688 902.49 9.96086C902.358 10.0798 902.154 10.2302 902.035 10.2948C901.615 10.5239 900.357 11.9868 900.002 12.6571C898.961 14.6271 898.646 15.8043 898.646 17.7243C898.646 25.7863 907.646 30.0902 913.314 24.7388C915.248 22.9125 915.326 22.5071 913.808 22.1435C913.382 22.0418 912.773 21.8854 912.454 21.7968C911.592 21.5566 911.444 21.5721 911.048 21.9452C909.177 23.7082 906.531 23.9209 904.508 22.4711C903.523 21.7652 902.694 20.6939 902.44 19.7997L902.357 19.5072H909.115H915.873L916.076 19.3065L916.278 19.1058L916.243 17.7602C916.223 16.975 916.171 16.2348 916.117 15.9826C916.068 15.7448 915.981 15.3258 915.923 15.0512C915.808 14.4986 915.279 13.272 914.934 12.7568C914.811 12.5741 914.693 12.3646 914.672 12.2912C914.598 12.0318 913.282 10.5925 912.846 10.2932C912.673 10.1751 912.427 9.98879 912.298 9.87906C911.173 8.92419 908.536 8.21631 906.702 8.37672ZM924.945 8.4681C924.405 8.51837 923.504 8.74502 923.217 8.90224C923.119 8.95571 922.995 8.99961 922.941 8.99961C922.15 8.99961 920.153 11.0003 919.397 12.5498C918.475 14.4379 918.449 14.6873 918.471 21.3918L918.488 26.7679L918.664 26.9283C918.89 27.1346 921.399 27.1817 921.683 26.985C921.935 26.809 921.935 26.8085 921.968 20.9704L921.999 15.2843L922.191 14.7815C922.297 14.505 922.542 14.056 922.735 13.7839C923.372 12.8842 923.318 12.9336 924.225 12.4333C925.19 11.9001 926.229 11.9452 927.17 12.561C927.418 12.7237 927.642 12.8566 927.666 12.8566C927.897 12.8566 928.817 14.3143 929.025 15.0093C929.283 15.8741 929.302 16.3389 929.302 21.7059C929.303 26.7376 929.304 26.7994 929.43 26.9431C929.639 27.1809 932.218 27.1681 932.481 26.9283L932.657 26.7679L932.691 21.1923L932.726 15.6167L932.919 14.985C934.119 11.0678 938.506 11.1392 939.818 15.0976L939.99 15.6167L940.022 21.2429C940.049 25.876 940.07 26.8884 940.141 26.979C940.298 27.1801 943.09 27.1406 943.272 26.9347L943.409 26.781V21.1939C943.409 14.8968 943.416 15.0237 942.941 13.5576C942.531 12.294 941.567 10.7509 940.901 10.2921C940.781 10.2091 940.56 10.0231 940.41 9.87946C939.226 8.74144 936.569 8.13052 934.862 8.60417C933.387 9.01357 932.433 9.58737 931.421 10.6727L930.938 11.1915L930.669 10.8567C929.345 9.2079 927.092 8.26739 924.945 8.4681ZM946.059 8.44775C945.635 8.53434 945.666 7.80652 945.666 17.8153V26.813L945.831 26.951C945.997 27.0895 948.464 27.1705 948.766 27.0472C949.06 26.9279 949.051 27.2068 949.051 17.7782C949.051 8.10538 949.07 8.61414 948.699 8.46451C948.547 8.40306 946.344 8.3891 946.059 8.44775ZM958.612 8.53035C957.844 8.6756 956.738 9.04269 956.195 9.33319C955.775 9.55785 955.124 9.97961 955.07 10.0626C955.053 10.0886 954.911 10.1935 954.756 10.2948C954.601 10.3966 954.209 10.7677 953.886 11.1196C951.755 13.436 950.958 16.1893 951.437 19.5738C951.771 21.9273 953.675 24.7464 955.697 25.8801C956.536 26.3505 956.716 26.4367 957.314 26.655C960.427 27.7914 964.03 26.88 966.417 24.3526C968.406 22.2473 969.408 18.6509 968.778 15.8828C968.423 14.3202 968.197 13.7065 967.678 12.8902C967.516 12.6339 967.308 12.29 967.218 12.1251C966.985 11.7018 965.889 10.5714 965.275 10.1209C963.323 8.68996 960.868 8.10379 958.612 8.53035ZM983.584 8.47209C982.869 8.65126 982.173 9.32282 981.909 10.0882L981.745 10.5622V12.8902C981.745 15.1534 981.75 15.2296 981.891 15.6498C982.619 17.8217 985.591 18.012 986.564 15.9491C986.848 15.3465 986.864 15.1578 986.843 12.7226L986.824 10.4293L986.63 9.99717C986.083 8.77694 984.843 8.15646 983.584 8.47209ZM984.698 11.2872L984.912 11.5135V13.2344C984.912 14.7472 984.899 14.9751 984.805 15.1199C984.537 15.5321 984.197 15.5704 983.871 15.2244L983.658 14.9982V13.2556V11.5135L983.871 11.2872C984.025 11.1244 984.14 11.061 984.284 11.061C984.43 11.061 984.545 11.1244 984.698 11.2872ZM888.821 12.1875C892.641 13.2293 894.202 17.8879 891.842 21.2031C891.396 21.8295 891.231 21.9923 890.436 22.5933C888.402 24.1299 885.233 23.6048 883.451 21.4357C880.096 17.352 883.878 10.8391 888.821 12.1875ZM908.833 12.1914C910.455 12.7218 911.742 13.8913 912.343 15.3812L912.559 15.916H907.454H902.35L902.435 15.6601C902.612 15.1283 903.033 14.3781 903.317 14.0872C903.389 14.0138 903.509 13.8681 903.585 13.7628C904.557 12.4152 907.146 11.64 908.833 12.1914ZM961.495 12.2266C962.569 12.5565 963.166 12.9293 963.923 13.7404C967.743 17.8396 964.157 24.6032 958.85 23.3068C957.966 23.0909 957.645 22.9173 956.628 22.1017C955.109 20.8838 954.407 18.4458 954.945 16.2531C955.683 13.2397 958.72 11.3734 961.495 12.2266ZM990.717 16.6741C990.834 16.7986 990.93 16.965 990.93 17.0444C990.93 17.4194 990.261 19.206 990.058 19.3743C990.036 19.3923 989.842 19.6468 989.625 19.9393C989.409 20.2322 989.138 20.5462 989.025 20.6376C988.909 20.7294 988.608 20.9724 988.353 21.1783C987.656 21.7418 987.014 22.0438 985.758 22.4005C984.22 22.8375 981.773 22.3714 980.436 21.387C979.515 20.7094 978.442 19.5311 978.299 19.0415C978.271 18.9502 978.157 18.6792 978.044 18.439C977.501 17.2894 977.589 16.6809 978.298 16.6809C978.654 16.6809 978.793 16.8245 978.962 17.37C979.037 17.6126 979.193 17.9849 979.309 18.1972C979.425 18.4094 979.521 18.607 979.521 18.6361C979.521 18.8935 980.805 20.174 981.351 20.4597C984.66 22.1954 988.485 20.7993 989.519 17.4789C989.843 16.4363 990.242 16.1693 990.717 16.6741Z" fill="white"/>
<path fill-rule="evenodd" clip-rule="evenodd" d="M893.092 2.68859C892.978 2.82226 892.971 2.99744 892.955 6.54559C892.945 8.79929 892.914 10.2629 892.879 10.2629C892.847 10.2629 892.77 10.2067 892.708 10.138C892.58 9.99438 891.912 9.55465 891.428 9.29448C890.145 8.60496 887.95 8.24305 886.403 8.4661C885.282 8.62731 883.329 9.36471 882.879 9.79606C882.81 9.8623 882.556 10.051 882.314 10.2158C881.894 10.5023 880.465 11.9711 880.465 12.116C880.465 12.1535 880.305 12.4312 880.11 12.7333C879.528 13.6355 879.269 14.3167 878.914 15.8828C878.636 17.1091 878.757 19.115 879.212 20.8371C879.386 21.4935 880.212 23.1319 880.414 23.2205C880.442 23.2325 880.465 23.2736 880.465 23.3115C880.465 23.545 881.598 24.7564 882.408 25.3888C884.599 27.0991 887.94 27.6094 890.471 26.6202C891.15 26.3553 892.375 25.6917 892.682 25.4232L892.91 25.2233L892.941 25.9846C892.969 26.6745 892.986 26.7619 893.124 26.9171L893.276 27.0887H894.669C895.947 27.0887 896.074 27.0784 896.21 26.9614L896.357 26.8345V15.5585C896.357 5.62224 896.347 4.27113 896.263 4.18614C896.212 4.13307 895.972 3.97904 895.731 3.84337C895.489 3.7077 895.235 3.54451 895.167 3.48026C894.362 2.73328 893.375 2.3566 893.092 2.68859ZM945.769 2.67024C945.681 2.77398 945.666 2.96791 945.666 3.98543C945.666 5.34571 945.661 5.33095 946.181 5.68169C946.363 5.8046 946.566 5.95662 946.631 6.01967C946.696 6.08271 946.908 6.22038 947.101 6.32533C947.294 6.43027 947.645 6.65611 947.88 6.8269C948.441 7.23511 948.774 7.24708 948.959 6.86641C949.097 6.58389 949.094 3.02856 948.955 2.74485L948.86 2.54853H947.367C945.999 2.54853 945.864 2.55891 945.769 2.67024ZM982.812 2.59362C981.921 2.71333 980.416 3.19336 979.659 3.59877C979.462 3.70452 979.223 3.81145 979.129 3.83579C978.927 3.88886 977.73 4.7344 977.113 5.26032C976.305 5.94984 974.994 7.4849 974.693 8.0962C974.482 8.52236 974.177 9.06704 974.132 9.09657C974.053 9.14844 973.459 10.6687 973.313 11.1943C972.748 13.2201 972.749 13.2105 972.749 19.3962V24.7552L972.9 25.1973C972.984 25.4407 973.12 25.7188 973.203 25.8154C973.285 25.9124 973.399 26.0692 973.454 26.1645C973.598 26.4111 974.207 26.8214 974.645 26.9658C975.157 27.1346 984.498 27.1534 985.602 26.9874C987.369 26.722 989.554 25.8214 990.773 24.8553C990.98 24.6913 991.207 24.5318 991.277 24.5006C991.346 24.4691 991.666 24.1782 991.989 23.8542C992.312 23.5298 992.601 23.2544 992.631 23.2421C992.662 23.2297 992.905 22.9317 993.172 22.5797C993.44 22.2277 993.717 21.8702 993.792 21.7856C993.865 21.701 994.03 21.4158 994.158 21.1516C994.286 20.887 994.428 20.626 994.475 20.571C994.521 20.5155 994.696 20.156 994.866 19.7718C996.134 16.8911 996.178 12.9564 994.975 10.0295C994.78 9.55425 994.582 9.12091 994.536 9.06585C994.49 9.01118 994.351 8.75181 994.228 8.49004C993.763 7.50565 992.184 5.64977 991.212 4.94868C991.04 4.82378 990.758 4.61151 990.585 4.47584C988.817 3.08722 985.362 2.25086 982.812 2.59362ZM985.194 7.17405C986.56 7.55153 987.655 8.72308 988.014 10.1927C988.18 10.871 988.151 15.1199 987.977 15.7424C987.836 16.2463 987.67 16.6298 987.495 16.8588C986.693 17.9115 986.176 18.3176 985.269 18.6077C983.429 19.196 981.244 17.9446 980.661 15.969C980.474 15.3369 980.371 11.2705 980.52 10.4561C980.961 8.0563 983.058 6.58389 985.194 7.17405ZM906.702 8.37672C905.356 8.49484 903.223 9.29688 902.49 9.96086C902.358 10.0798 902.154 10.2302 902.035 10.2948C901.615 10.5239 900.357 11.9868 900.002 12.6571C898.961 14.6271 898.646 15.8043 898.646 17.7243C898.646 25.7863 907.646 30.0902 913.314 24.7388C915.248 22.9125 915.326 22.5071 913.808 22.1435C913.382 22.0418 912.773 21.8854 912.454 21.7968C911.592 21.5566 911.444 21.5721 911.048 21.9452C909.177 23.7082 906.531 23.9209 904.508 22.4711C903.523 21.7652 902.694 20.6939 902.44 19.7997L902.357 19.5072H909.115H915.873L916.076 19.3065L916.278 19.1058L916.243 17.7602C916.223 16.975 916.171 16.2348 916.117 15.9826C916.068 15.7448 915.981 15.3258 915.923 15.0512C915.808 14.4986 915.279 13.272 914.934 12.7568C914.811 12.5741 914.693 12.3646 914.672 12.2912C914.598 12.0318 913.282 10.5925 912.846 10.2932C912.673 10.1751 912.427 9.98879 912.298 9.87906C911.173 8.92419 908.536 8.21631 906.702 8.37672ZM924.945 8.4681C924.405 8.51837 923.504 8.74502 923.217 8.90224C923.119 8.95571 922.995 8.99961 922.941 8.99961C922.15 8.99961 920.153 11.0003 919.397 12.5498C918.475 14.4379 918.449 14.6873 918.471 21.3918L918.488 26.7679L918.664 26.9283C918.89 27.1346 921.399 27.1817 921.683 26.985C921.935 26.809 921.935 26.8085 921.968 20.9704L921.999 15.2843L922.191 14.7815C922.297 14.505 922.542 14.056 922.735 13.7839C923.372 12.8842 923.318 12.9336 924.225 12.4333C925.19 11.9001 926.229 11.9452 927.17 12.561C927.418 12.7237 927.642 12.8566 927.666 12.8566C927.897 12.8566 928.817 14.3143 929.025 15.0093C929.283 15.8741 929.302 16.3389 929.302 21.7059C929.303 26.7376 929.304 26.7994 929.43 26.9431C929.639 27.1809 932.218 27.1681 932.481 26.9283L932.657 26.7679L932.691 21.1923L932.726 15.6167L932.919 14.985C934.119 11.0678 938.506 11.1392 939.818 15.0976L939.99 15.6167L940.022 21.2429C940.049 25.876 940.07 26.8884 940.141 26.979C940.298 27.1801 943.09 27.1406 943.272 26.9347L943.409 26.781V21.1939C943.409 14.8968 943.416 15.0237 942.941 13.5576C942.531 12.294 941.567 10.7509 940.901 10.2921C940.781 10.2091 940.56 10.0231 940.41 9.87946C939.226 8.74144 936.569 8.13052 934.862 8.60417C933.387 9.01357 932.433 9.58737 931.421 10.6727L930.938 11.1915L930.669 10.8567C929.345 9.2079 927.092 8.26739 924.945 8.4681ZM946.059 8.44775C945.635 8.53434 945.666 7.80652 945.666 17.8153V26.813L945.831 26.951C945.997 27.0895 948.464 27.1705 948.766 27.0472C949.06 26.9279 949.051 27.2068 949.051 17.7782C949.051 8.10538 949.07 8.61414 948.699 8.46451C948.547 8.40306 946.344 8.3891 946.059 8.44775ZM958.612 8.53035C957.844 8.6756 956.738 9.04269 956.195 9.33319C955.775 9.55785 955.124 9.97961 955.07 10.0626C955.053 10.0886 954.911 10.1935 954.756 10.2948C954.601 10.3966 954.209 10.7677 953.886 11.1196C951.755 13.436 950.958 16.1893 951.437 19.5738C951.771 21.9273 953.675 24.7464 955.697 25.8801C956.536 26.3505 956.716 26.4367 957.314 26.655C960.427 27.7914 964.03 26.88 966.417 24.3526C968.406 22.2473 969.408 18.6509 968.778 15.8828C968.423 14.3202 968.197 13.7065 967.678 12.8902C967.516 12.6339 967.308 12.29 967.218 12.1251C966.985 11.7018 965.889 10.5714 965.275 10.1209C963.323 8.68996 960.868 8.10379 958.612 8.53035ZM983.584 8.47209C982.869 8.65126 982.173 9.32282 981.909 10.0882L981.745 10.5622V12.8902C981.745 15.1534 981.75 15.2296 981.891 15.6498C982.619 17.8217 985.591 18.012 986.564 15.9491C986.848 15.3465 986.864 15.1578 986.843 12.7226L986.824 10.4293L986.63 9.99717C986.083 8.77694 984.843 8.15646 983.584 8.47209ZM984.698 11.2872L984.912 11.5135V13.2344C984.912 14.7472 984.899 14.9751 984.805 15.1199C984.537 15.5321 984.197 15.5704 983.871 15.2244L983.658 14.9982V13.2556V11.5135L983.871 11.2872C984.025 11.1244 984.14 11.061 984.284 11.061C984.43 11.061 984.545 11.1244 984.698 11.2872ZM888.821 12.1875C892.641 13.2293 894.202 17.8879 891.842 21.2031C891.396 21.8295 891.231 21.9923 890.436 22.5933C888.402 24.1299 885.233 23.6048 883.451 21.4357C880.096 17.352 883.878 10.8391 888.821 12.1875ZM908.833 12.1914C910.455 12.7218 911.742 13.8913 912.343 15.3812L912.559 15.916H907.454H902.35L902.435 15.6601C902.612 15.1283 903.033 14.3781 903.317 14.0872C903.389 14.0138 903.509 13.8681 903.585 13.7628C904.557 12.4152 907.146 11.64 908.833 12.1914ZM961.495 12.2266C962.569 12.5565 963.166 12.9293 963.923 13.7404C967.743 17.8396 964.157 24.6032 958.85 23.3068C957.966 23.0909 957.645 22.9173 956.628 22.1017C955.109 20.8838 954.407 18.4458 954.945 16.2531C955.683 13.2397 958.72 11.3734 961.495 12.2266ZM990.717 16.6741C990.834 16.7986 990.93 16.965 990.93 17.0444C990.93 17.4194 990.261 19.206 990.058 19.3743C990.036 19.3923 989.842 19.6468 989.625 19.9393C989.409 20.2322 989.138 20.5462 989.025 20.6376C988.909 20.7294 988.608 20.9724 988.353 21.1783C987.656 21.7418 987.014 22.0438 985.758 22.4005C984.22 22.8375 981.773 22.3714 980.436 21.387C979.515 20.7094 978.442 19.5311 978.299 19.0415C978.271 18.9502 978.157 18.6792 978.044 18.439C977.501 17.2894 977.589 16.6809 978.298 16.6809C978.654 16.6809 978.793 16.8245 978.962 17.37C979.037 17.6126 979.193 17.9849 979.309 18.1972C979.425 18.4094 979.521 18.607 979.521 18.6361C979.521 18.8935 980.805 20.174 981.351 20.4597C984.66 22.1954 988.485 20.7993 989.519 17.4789C989.843 16.4363 990.242 16.1693 990.717 16.6741Z" fill="white"/>
<path fill-rule="evenodd" clip-rule="evenodd" d="M893.092 2.68859C892.978 2.82226 892.971 2.99744 892.955 6.54559C892.945 8.79929 892.914 10.2629 892.879 10.2629C892.847 10.2629 892.77 10.2067 892.708 10.138C892.58 9.99438 891.912 9.55465 891.428 9.29448C890.145 8.60496 887.95 8.24305 886.403 8.4661C885.282 8.62731 883.329 9.36471 882.879 9.79606C882.81 9.8623 882.556 10.051 882.314 10.2158C881.894 10.5023 880.465 11.9711 880.465 12.116C880.465 12.1535 880.305 12.4312 880.11 12.7333C879.528 13.6355 879.269 14.3167 878.914 15.8828C878.636 17.1091 878.757 19.115 879.212 20.8371C879.386 21.4935 880.212 23.1319 880.414 23.2205C880.442 23.2325 880.465 23.2736 880.465 23.3115C880.465 23.545 881.598 24.7564 882.408 25.3888C884.599 27.0991 887.94 27.6094 890.471 26.6202C891.15 26.3553 892.375 25.6917 892.682 25.4232L892.91 25.2233L892.941 25.9846C892.969 26.6745 892.986 26.7619 893.124 26.9171L893.276 27.0887H894.669C895.947 27.0887 896.074 27.0784 896.21 26.9614L896.357 26.8345V15.5585C896.357 5.62224 896.347 4.27113 896.263 4.18614C896.212 4.13307 895.972 3.97904 895.731 3.84337C895.489 3.7077 895.235 3.54451 895.167 3.48026C894.362 2.73328 893.375 2.3566 893.092 2.68859ZM945.769 2.67024C945.681 2.77398 945.666 2.96791 945.666 3.98543C945.666 5.34571 945.661 5.33095 946.181 5.68169C946.363 5.8046 946.566 5.95662 946.631 6.01967C946.696 6.08271 946.908 6.22038 947.101 6.32533C947.294 6.43027 947.645 6.65611 947.88 6.8269C948.441 7.23511 948.774 7.24708 948.959 6.86641C949.097 6.58389 949.094 3.02856 948.955 2.74485L948.86 2.54853H947.367C945.999 2.54853 945.864 2.55891 945.769 2.67024ZM982.812 2.59362C981.921 2.71333 980.416 3.19336 979.659 3.59877C979.462 3.70452 979.223 3.81145 979.129 3.83579C978.927 3.88886 977.73 4.7344 977.113 5.26032C976.305 5.94984 974.994 7.4849 974.693 8.0962C974.482 8.52236 974.177 9.06704 974.132 9.09657C974.053 9.14844 973.459 10.6687 973.313 11.1943C972.748 13.2201 972.749 13.2105 972.749 19.3962V24.7552L972.9 25.1973C972.984 25.4407 973.12 25.7188 973.203 25.8154C973.285 25.9124 973.399 26.0692 973.454 26.1645C973.598 26.4111 974.207 26.8214 974.645 26.9658C975.157 27.1346 984.498 27.1534 985.602 26.9874C987.369 26.722 989.554 25.8214 990.773 24.8553C990.98 24.6913 991.207 24.5318 991.277 24.5006C991.346 24.4691 991.666 24.1782 991.989 23.8542C992.312 23.5298 992.601 23.2544 992.631 23.2421C992.662 23.2297 992.905 22.9317 993.172 22.5797C993.44 22.2277 993.717 21.8702 993.792 21.7856C993.865 21.701 994.03 21.4158 994.158 21.1516C994.286 20.887 994.428 20.626 994.475 20.571C994.521 20.5155 994.696 20.156 994.866 19.7718C996.134 16.8911 996.178 12.9564 994.975 10.0295C994.78 9.55425 994.582 9.12091 994.536 9.06585C994.49 9.01118 994.351 8.75181 994.228 8.49004C993.763 7.50565 992.184 5.64977 991.212 4.94868C991.04 4.82378 990.758 4.61151 990.585 4.47584C988.817 3.08722 985.362 2.25086 982.812 2.59362ZM985.194 7.17405C986.56 7.55153 987.655 8.72308 988.014 10.1927C988.18 10.871 988.151 15.1199 987.977 15.7424C987.836 16.2463 987.67 16.6298 987.495 16.8588C986.693 17.9115 986.176 18.3176 985.269 18.6077C983.429 19.196 981.244 17.9446 980.661 15.969C980.474 15.3369 980.371 11.2705 980.52 10.4561C980.961 8.0563 983.058 6.58389 985.194 7.17405ZM906.702 8.37672C905.356 8.49484 903.223 9.29688 902.49 9.96086C902.358 10.0798 902.154 10.2302 902.035 10.2948C901.615 10.5239 900.357 11.9868 900.002 12.6571C898.961 14.6271 898.646 15.8043 898.646 17.7243C898.646 25.7863 907.646 30.0902 913.314 24.7388C915.248 22.9125 915.326 22.5071 913.808 22.1435C913.382 22.0418 912.773 21.8854 912.454 21.7968C911.592 21.5566 911.444 21.5721 911.048 21.9452C909.177 23.7082 906.531 23.9209 904.508 22.4711C903.523 21.7652 902.694 20.6939 902.44 19.7997L902.357 19.5072H909.115H915.873L916.076 19.3065L916.278 19.1058L916.243 17.7602C916.223 16.975 916.171 16.2348 916.117 15.9826C916.068 15.7448 915.981 15.3258 915.923 15.0512C915.808 14.4986 915.279 13.272 914.934 12.7568C914.811 12.5741 914.693 12.3646 914.672 12.2912C914.598 12.0318 913.282 10.5925 912.846 10.2932C912.673 10.1751 912.427 9.98879 912.298 9.87906C911.173 8.92419 908.536 8.21631 906.702 8.37672ZM924.945 8.4681C924.405 8.51837 923.504 8.74502 923.217 8.90224C923.119 8.95571 922.995 8.99961 922.941 8.99961C922.15 8.99961 920.153 11.0003 919.397 12.5498C918.475 14.4379 918.449 14.6873 918.471 21.3918L918.488 26.7679L918.664 26.9283C918.89 27.1346 921.399 27.1817 921.683 26.985C921.935 26.809 921.935 26.8085 921.968 20.9704L921.999 15.2843L922.191 14.7815C922.297 14.505 922.542 14.056 922.735 13.7839C923.372 12.8842 923.318 12.9336 924.225 12.4333C925.19 11.9001 926.229 11.9452 927.17 12.561C927.418 12.7237 927.642 12.8566 927.666 12.8566C927.897 12.8566 928.817 14.3143 929.025 15.0093C929.283 15.8741 929.302 16.3389 929.302 21.7059C929.303 26.7376 929.304 26.7994 929.43 26.9431C929.639 27.1809 932.218 27.1681 932.481 26.9283L932.657 26.7679L932.691 21.1923L932.726 15.6167L932.919 14.985C934.119 11.0678 938.506 11.1392 939.818 15.0976L939.99 15.6167L940.022 21.2429C940.049 25.876 940.07 26.8884 940.141 26.979C940.298 27.1801 943.09 27.1406 943.272 26.9347L943.409 26.781V21.1939C943.409 14.8968 943.416 15.0237 942.941 13.5576C942.531 12.294 941.567 10.7509 940.901 10.2921C940.781 10.2091 940.56 10.0231 940.41 9.87946C939.226 8.74144 936.569 8.13052 934.862 8.60417C933.387 9.01357 932.433 9.58737 931.421 10.6727L930.938 11.1915L930.669 10.8567C929.345 9.2079 927.092 8.26739 924.945 8.4681ZM946.059 8.44775C945.635 8.53434 945.666 7.80652 945.666 17.8153V26.813L945.831 26.951C945.997 27.0895 948.464 27.1705 948.766 27.0472C949.06 26.9279 949.051 27.2068 949.051 17.7782C949.051 8.10538 949.07 8.61414 948.699 8.46451C948.547 8.40306 946.344 8.3891 946.059 8.44775ZM958.612 8.53035C957.844 8.6756 956.738 9.04269 956.195 9.33319C955.775 9.55785 955.124 9.97961 955.07 10.0626C955.053 10.0886 954.911 10.1935 954.756 10.2948C954.601 10.3966 954.209 10.7677 953.886 11.1196C951.755 13.436 950.958 16.1893 951.437 19.5738C951.771 21.9273 953.675 24.7464 955.697 25.8801C956.536 26.3505 956.716 26.4367 957.314 26.655C960.427 27.7914 964.03 26.88 966.417 24.3526C968.406 22.2473 969.408 18.6509 968.778 15.8828C968.423 14.3202 968.197 13.7065 967.678 12.8902C967.516 12.6339 967.308 12.29 967.218 12.1251C966.985 11.7018 965.889 10.5714 965.275 10.1209C963.323 8.68996 960.868 8.10379 958.612 8.53035ZM983.584 8.47209C982.869 8.65126 982.173 9.32282 981.909 10.0882L981.745 10.5622V12.8902C981.745 15.1534 981.75 15.2296 981.891 15.6498C982.619 17.8217 985.591 18.012 986.564 15.9491C986.848 15.3465 986.864 15.1578 986.843 12.7226L986.824 10.4293L986.63 9.99717C986.083 8.77694 984.843 8.15646 983.584 8.47209ZM984.698 11.2872L984.912 11.5135V13.2344C984.912 14.7472 984.899 14.9751 984.805 15.1199C984.537 15.5321 984.197 15.5704 983.871 15.2244L983.658 14.9982V13.2556V11.5135L983.871 11.2872C984.025 11.1244 984.14 11.061 984.284 11.061C984.43 11.061 984.545 11.1244 984.698 11.2872ZM888.821 12.1875C892.641 13.2293 894.202 17.8879 891.842 21.2031C891.396 21.8295 891.231 21.9923 890.436 22.5933C888.402 24.1299 885.233 23.6048 883.451 21.4357C880.096 17.352 883.878 10.8391 888.821 12.1875ZM908.833 12.1914C910.455 12.7218 911.742 13.8913 912.343 15.3812L912.559 15.916H907.454H902.35L902.435 15.6601C902.612 15.1283 903.033 14.3781 903.317 14.0872C903.389 14.0138 903.509 13.8681 903.585 13.7628C904.557 12.4152 907.146 11.64 908.833 12.1914ZM961.495 12.2266C962.569 12.5565 963.166 12.9293 963.923 13.7404C967.743 17.8396 964.157 24.6032 958.85 23.3068C957.966 23.0909 957.645 22.9173 956.628 22.1017C955.109 20.8838 954.407 18.4458 954.945 16.2531C955.683 13.2397 958.72 11.3734 961.495 12.2266ZM990.717 16.6741C990.834 16.7986 990.93 16.965 990.93 17.0444C990.93 17.4194 990.261 19.206 990.058 19.3743C990.036 19.3923 989.842 19.6468 989.625 19.9393C989.409 20.2322 989.138 20.5462 989.025 20.6376C988.909 20.7294 988.608 20.9724 988.353 21.1783C987.656 21.7418 987.014 22.0438 985.758 22.4005C984.22 22.8375 981.773 22.3714 980.436 21.387C979.515 20.7094 978.442 19.5311 978.299 19.0415C978.271 18.9502 978.157 18.6792 978.044 18.439C977.501 17.2894 977.589 16.6809 978.298 16.6809C978.654 16.6809 978.793 16.8245 978.962 17.37C979.037 17.6126 979.193 17.9849 979.309 18.1972C979.425 18.4094 979.521 18.607 979.521 18.6361C979.521 18.8935 980.805 20.174 981.351 20.4597C984.66 22.1954 988.485 20.7993 989.519 17.4789C989.843 16.4363 990.242 16.1693 990.717 16.6741Z" fill="white"/>
</g>
</g>
<defs>
<clipPath id="clip0">
<rect width="117.188" height="25" fill="white" transform="translate(22.0469 2.51685)"/>
</clipPath>
<clipPath id="clip1">
<rect width="117.188" height="25" fill="white" transform="translate(213.234 2.51685)"/>
</clipPath>
<clipPath id="clip2">
<rect width="92.1875" height="25" fill="white" transform="translate(404.422 2.51685)"/>
</clipPath>
<clipPath id="clip3">
<rect width="104.688" height="25" fill="white" transform="translate(570.609 2.51685)"/>
</clipPath>
<clipPath id="clip4">
<rect width="55.4688" height="25" fill="white" transform="translate(749.297 2.51685)"/>
</clipPath>
<clipPath id="clip5">
<rect width="117.188" height="25" fill="white" transform="translate(878.766 2.51685)"/>
</clipPath>
</defs>
</svg>
